<?xml version="1.0" encoding="utf-8"?>
<!-- Generator: Adobe Illustrator 16.0.0, SVG Export Plug-In . SVG Version: 6.00 Build 0)  -->
<!DOCTYPE svg PUBLIC "-//W3C//DTD SVG 1.1//EN" "http://www.w3.org/Graphics/SVG/1.1/DTD/svg11.dtd">
<svg version="1.1" id="Layer_1" xmlns="http://www.w3.org/2000/svg" xmlns:xlink="http://www.w3.org/1999/xlink" x="0px" y="0px"
	 width="566.93px" height="566.93px" viewBox="0 0 566.93 566.93" enable-background="new 0 0 566.93 566.93" xml:space="preserve">
<g>
	<path fill-rule="evenodd" clip-rule="evenodd" fill="#242424" d="M402.141,350.546c-0.251,0.729-0.143,1.331-0.143,1.919
		c-0.008,12.406,0.004,24.812-0.013,37.216c-0.005,4.994,0.064,9.986-0.145,14.975c-0.146,3.445-0.062,6.897-0.3,10.338
		c-0.389,5.601-0.69,11.222-1.361,16.795c-0.975,8.083-2.617,16.036-4.92,23.867c-3.254,11.059-8.386,21.12-15.405,30.31
		c3.378,2.941,6.087,6.341,8.01,10.334c2.021,4.195,3.27,8.571,2.826,13.303c-0.323,3.442-1.761,6.271-4.506,8.398
		c-0.514,0.398-1.087,0.71-1.524,1.215c-0.285,0.332-0.732,0.496-1.173,0.563c-4.144,0.607-8.136,0.255-11.977-1.613
		c-4.181-2.038-7.838-4.778-11.225-7.913c-1.81-1.675-3.514-3.467-5.057-5.396c-0.523-0.653-0.963-0.826-1.77-0.454
		c-5.062,2.358-10.384,4.058-15.57,6.105c-6.581,2.593-13.457,4.176-20.394,5.509c-4.135,0.791-8.275,1.547-12.451,2.067
		c-3.685,0.459-7.389,0.781-11.075,1.221c-8.126,0.97-16.287,0.903-24.446,0.842c-4.65-0.04-9.278-0.47-13.896-0.985
		c-5.707-0.633-11.384-1.444-16.995-2.706c-8.721-1.96-17.229-4.564-25.388-8.244c-0.348-0.159-0.704-0.302-1.056-0.449
		c-0.409-0.175-0.785-0.348-1.119,0.184c-0.203,0.327-0.591,0.479-0.987,0.536c-2.268,0.311-4.011,1.67-5.781,2.945
		c-3.377,2.436-6.458,5.242-9.752,7.785c-2.434,1.879-4.966,3.579-7.964,4.473c-1.709,0.51-3.492,0.857-5.179,0.443
		c-2.013-0.5-3.823-1.562-5.198-3.246c-1.924-2.364-2.714-5.126-2.747-8.071c-0.091-8.46,3.196-15.504,9.286-21.288
		c0.551-0.526,1.202-0.956,1.848-1.364c0.597-0.377,1.248-0.669,1.936-1.031c-0.754-1.108-1.512-2.235-2.282-3.349
		c-3.958-5.753-7.369-11.808-9.774-18.368c-2.582-7.036-4.685-14.223-6-21.625c-0.839-4.729-1.593-9.471-1.978-14.271
		c-0.288-3.588-0.566-7.177-0.783-10.776c-0.195-3.227-0.197-6.448-0.306-9.675c-0.643-18.7-0.162-37.41-0.314-56.115
		c-0.005-0.59,0-1.181,0-1.752c-0.548-0.179-0.764,0.218-1.074,0.398c-4.513,2.635-9.338,3.229-14.413,2.211
		c-3.123-0.622-5.886-1.905-8.226-4.146c-3.888-3.727-4.151-9.087-1.454-13.514c1.691-2.771,3.979-4.978,6.593-6.785
		c5.072-3.517,10.524-6.289,16.63-7.575c0.371-0.083,0.75-0.128,1.288-0.226c-0.065-1.827,0.127-3.67-0.127-5.523
		c-0.067-0.484-0.09-0.978-0.094-1.471c-0.042-4.712,0.071-9.438-0.147-14.146c-0.367-7.952-0.154-15.9-0.148-23.846
		c0.005-4.32,0.209-8.649,0.315-12.968c0.112-4.536,0.289-9.072,0.662-13.59c0.753-9.133,1.483-18.264,3.101-27.303
		c1.057-5.922,2.101-11.832,3.76-17.618c0.076-0.254,0.114-0.522,0.193-0.904c-1.646-0.086-3.193-0.29-4.667-0.883
		c-4.118-1.649-7.345-4.432-10.228-7.739c-3.475-3.988-6.166-8.422-7.515-13.519c-2.484-9.377-1.369-18.101,5.326-25.618
		c4.339-4.871,9.89-7.502,16.2-8.641c5.084-0.917,10.142-0.703,15.125,0.743c0.26,0.078,0.527,0.135,0.877,0.224
		c0.185-1.079-0.138-2.08-0.285-3.061c-0.807-5.395-1.451-10.806-1.938-16.24c-0.381-4.237-0.859-8.467-1.18-12.708
		c-0.246-3.272-0.32-6.558-0.458-9.837c-0.056-1.313-0.064-1.4-1.249-1.257c-4.426,0.532-8.875,0.39-13.304,0.277
		c-6.028-0.152-12.002-0.896-17.725-2.947c-2.841-1.02-5.537-2.343-7.877-4.317c-4.67-3.938-5.431-9.517-0.644-14.218
		c2.222-2.182,4.872-3.706,7.597-5.096c5.131-2.617,10.571-4.467,16.041-6.23c6.978-2.25,14.059-4.137,21.195-5.803
		c8.042-1.877,16.131-3.518,24.282-4.877c5.876-0.979,11.747-2.002,17.659-2.753c4.496-0.572,8.994-1.114,13.498-1.599
		c5.815-0.626,11.644-1.064,17.487-1.35c5.41-0.265,10.82-0.484,16.234-0.685c6.416-0.237,12.832-0.199,19.243-0.096
		c4.916,0.079,9.842,0.209,14.756,0.586c4.087,0.313,8.191,0.393,12.281,0.698c4.518,0.335,9.027,0.8,13.54,1.224
		c14.909,1.402,29.736,3.433,44.538,5.686c3.188,0.485,6.439,0.758,9.532,1.601c4.058,1.105,8.162,2.074,12.14,3.488
		c2.581,0.919,5.137,1.882,7.559,3.169c1.313,0.698,2.528,1.533,3.522,2.66c2.244,2.547,1.677,5.794-0.829,7.537
		c-2.169,1.509-4.621,2.227-7.095,2.875c-5.248,1.375-10.618,2.06-15.992,2.716c-4.011,0.489-8.03,0.912-12.056,1.237
		c-1.2,0.097-2.396,0.221-3.596,0.253c-0.721,0.019-0.925,0.307-0.947,0.993c-0.177,5.022-0.665,10.024-1.106,15.027
		c-0.585,6.63-1.247,13.255-1.979,19.872c-0.499,4.499-1.082,8.989-1.87,13.606c1.314-0.18,2.357-0.761,3.444-1.136
		c3.698-1.281,7.503-1.921,11.388-2.276c3.694-0.341,7.334-0.013,10.902,0.826c5.34,1.259,9.907,3.806,12.861,8.662
		c1.329,2.184,2.04,4.578,2.271,7.123c0.475,5.286-0.937,10.167-3.275,14.813c-3.104,6.167-7.435,11.327-13.005,15.429
		c-0.531,0.391-1.074,0.759-1.629,1.115c-1.398,0.894-1.402,0.889-0.801,2.339c3.588,8.612,6.097,17.543,7.832,26.7
		c1.21,6.381,2.269,12.783,2.896,19.246c0.406,4.181,0.815,8.363,1.094,12.559c0.289,4.362,0.48,8.728,0.669,13.095
		c0.164,3.885,0.126,7.775,0.324,11.65c0.421,8.275,0.243,16.554,0.143,24.827c-0.068,5.636-0.214,11.274-0.324,16.912
		c-0.032,1.688-0.153,3.381-0.191,5.075c-0.016,0.704,0.106,1.05,0.958,1.129c9.497,0.916,17.218,5.367,23.678,12.176
		c1.427,1.499,2.585,3.267,3.373,5.207c2.433,5.988,0.543,10.542-4.707,13.488c-2.699,1.511-5.653,2.251-8.751,2.548
		c-4.08,0.392-8.079,0.138-12.006-1.048C404.196,351.346,403.242,350.95,402.141,350.546z M344.295,153.088
		c0.186-0.086,0.373-0.173,0.56-0.261c0.729-0.759,1.913-1.035,2.463-2.248c-1.091-0.118-1.95,0.194-2.82,0.39
		c-3.673,0.828-7.328,1.752-11.036,2.428c-4.508,0.824-8.999,1.712-13.536,2.393c-3.666,0.55-7.333,1.082-11.008,1.573
		c-2.055,0.275-4.116,0.491-6.172,0.739c-2.87,0.351-5.741,0.668-8.623,0.884c-1.471,0.111-2.945,0.251-4.399,0.42
		c-3.361,0.394-6.739,0.547-10.107,0.835c-3.75,0.32-7.522,0.428-11.285,0.663c-3.162,0.2-6.342,0.301-9.507,0.321
		c-8.162,0.054-16.332,0.371-24.49-0.235c-2.344-0.173-4.695-0.122-7.046-0.272c-4.523-0.286-9.037-0.628-13.55-1.032
		c-3.313-0.293-6.631-0.541-9.929-0.993c-1.228-0.168-1.767,0.47-1.411,1.608c0.151,0.477,0.563,0.651,0.951,0.846
		c2.549,1.271,5.133,2.484,7.807,3.449c4.938,1.783,9.916,3.454,15.071,4.534c3.1,0.649,6.166,1.493,9.288,2.004
		c5.057,0.827,10.13,1.547,15.233,2.111c4.021,0.444,8.058,0.685,12.079,0.83c7.108,0.258,14.224,0.198,21.33-0.504
		c3.802-0.375,7.596-0.731,11.369-1.35c5.722-0.936,11.367-2.177,16.917-3.853c7.414-2.24,14.595-5.054,21.398-8.766
		c1.523-0.833,3.132-1.543,4.538-2.593c0.18-0.038,0.299-0.141,0.343-0.323l-0.025,0.024c2.017-0.995,3.91-2.181,5.626-3.641
		L344.295,153.088z M367.074,105.019c0.153-0.096,0.223-0.229,0.167-0.412c0.005-0.509,0.008-1.018,0.01-1.526
		c0.264-0.792,0.16-1.627,0.247-2.436c0.266-2.493,0.364-5.002,0.532-7.505c0.046-0.676-0.216-1.074-0.937-0.98
		c-1.072,0.139-1.916-0.272-2.644-1.006c-0.091-0.258-0.204-0.508-0.266-0.772c-0.416-1.829,0.573-3.113,2.477-3.171
		c2.093-0.063,4.101-0.594,6.266-0.485c3.12,0.157,6.284-0.441,9.422-0.779c4.116-0.44,8.236-0.885,12.333-1.456
		c0.873-0.121,1.864,0.049,2.648-0.569c3.711-0.021,10.809-2.033,12.469-3.574c-0.512-0.577-1.111-1.032-1.793-1.387
		c-1.554-0.809-3.096-1.661-4.761-2.21c-6.438-2.125-12.901-4.101-19.639-5.146c-10.372-1.609-20.755-3.133-31.168-4.434
		c-9.812-1.227-19.661-2.171-29.516-2.981c-5.609-0.462-11.236-0.742-16.86-0.997c-4.43-0.201-8.866-0.268-13.3-0.339
		c-3.069-0.051-6.143,0.021-9.211-0.018c-4.164-0.055-8.318,0.171-12.475,0.338c-4.044,0.162-8.088,0.325-12.128,0.554
		c-3.82,0.217-7.643,0.429-11.448,0.809c-5.816,0.583-11.619,1.31-17.428,1.975c-1.13,0.178-2.26,0.374-3.394,0.531
		c-7.036,0.975-14.049,2.11-21.023,3.441c-9.017,1.722-17.991,3.66-26.858,6.088c-8.453,2.314-16.84,4.8-24.862,8.364
		c-3.156,1.402-6.189,3.058-8.576,5.667c-1.614,1.763-1.664,3.442-0.103,5.26c0.249,0.29,0.531,0.555,0.815,0.81
		c1.826,1.637,4.009,2.646,6.272,3.49c5.292,1.976,10.85,2.509,16.42,2.815c3.06,0.169,6.138-0.014,9.208-0.038
		c0.162,0.02,0.328,0.075,0.486,0.058c3.242-0.375,6.506-0.572,9.669-1.5c1.514-0.442,2.952,0.325,3.328,1.604
		c0.365,1.24-0.487,2.705-1.893,3.219c-0.502,0.184-1.022,0.324-1.582,0.5c0.365,1.611,0.076,3.202,0.324,4.764
		c-0.023,0.328-0.124,0.672-0.055,0.98c0.556,2.474,0.285,5.007,0.512,7.51c0.29,3.202,0.561,6.417,0.851,9.621
		c0.132,1.454,0.065,2.949,0.488,4.389c0.164,0.556,0.354,0.809,0.939,0.914c1.558,0.275,3.097,0.668,4.655,0.959
		c6.228,1.163,12.45,2.354,18.756,3.047c3.312,0.364,6.604,0.939,9.949,0.956c0.315,0.083,0.626,0.222,0.947,0.245
		c4.912,0.333,9.825,0.833,14.744,0.929c7.23,0.144,14.463,0.207,21.699-0.138c5.142-0.247,10.27-0.577,15.397-1.017
		c5.506-0.474,10.997-1.08,16.479-1.777c6.726-0.856,13.4-2.066,20.064-3.322c8.923-1.682,17.798-3.61,26.589-5.889
		c3.646-0.944,7.336-1.721,10.931-2.856c4.362-1.009,8.636-2.342,12.957-3.5c0.988-0.264,1.338-0.798,1.41-1.682
		c0.067-0.816,0.08-1.636,0.166-2.45C366.268,114.012,366.757,109.524,367.074,105.019z M370.981,145.535
		c-2.496,0.885-4.743,2.237-6.893,3.759c-0.833,0.59-0.819,0.862,0.026,1.437c2.233,1.519,4.203,3.329,5.996,5.341
		c0.509,0.572,1.012,1.166,1.594,1.66c0.703,0.598,1.451-0.074,2.188-0.081c4.595-0.049,9.489,3.284,10.854,8.901
		c0.647,2.664,0.493,5.322-0.438,7.913c-0.148,0.419-0.318,0.778-0.063,1.239c1.132,2.05,2.236,4.117,3.362,6.202
		c0.34-0.171,0.647-0.296,0.918-0.472c0.318-0.207,0.604-0.458,0.905-0.688c0.138-0.085,0.282-0.159,0.413-0.253
		c6.16-4.471,10.441-10.368,13.019-17.481c1.004-2.764,1.557-5.67,1.085-8.658c-0.347-2.189-1.124-4.166-2.528-5.944
		c-2.122-2.686-5.039-3.985-8.162-4.847c-3.384-0.933-6.857-1.167-10.381-0.842C378.771,143.098,374.779,143.882,370.981,145.535z
		 M267.208,308.873c-2.321-0.019-3.265,1.408-2.848,3.317c0.278,1.281,0.584,2.574,1.043,3.794
		c2.276,6.05,6.017,11.018,11.178,14.901c3.324,2.499,6.983,4.297,11.096,5.096c1.409,0.271,2.887,0.47,4.213-0.115
		c3.018-1.329,5.804-3.059,8.211-5.348c0.487-0.057,0.739-0.444,1.041-0.75c1.349-1.353,2.701-2.7,3.927-4.179
		c3.293-3.976,5.816-8.306,6.795-13.444c0.44-2.306,0.274-2.604-2.026-2.992c-3.706-0.626-7.399-1.286-11.138-1.71
		c-4.122-0.465-8.236-0.868-12.388-0.911c-3.228-0.028-6.426,0.275-9.623,0.643C273.492,307.542,270.31,307.974,267.208,308.873z
		 M192.832,160.288c-0.924-0.921-1.733-2.021-2.804-2.72c-1.456-0.948-3.07-1.664-4.765-2.175c-2.968-0.899-5.988-1.201-9.084-1.153
		c-4.133,0.064-8.005,1.006-11.673,2.897c-4.129,2.128-7.317,5.204-9.267,9.424c-2.162,4.678-2.479,9.594-1.357,14.591
		c1.272,5.661,4.217,10.414,8.166,14.582c1.281,1.354,2.637,2.633,4.31,3.516c1.824,1.327,3.839,2.006,6.12,1.924
		c0.693-0.023,1.076-0.166,1.316-0.888c0.71-2.125,1.486-4.228,2.293-6.315c0.226-0.588,0.175-0.932-0.255-1.43
		c-1.671-1.924-2.493-4.19-2.511-6.759c-0.035-4.827,1.949-8.713,5.645-11.674c2.143-1.718,4.66-2.695,7.5-2.05
		c0.826,0.188,1.198-0.145,1.591-0.745c1.645-2.52,3.545-4.849,5.417-7.197C195.23,161.912,195.241,161.919,192.832,160.288z
		 M294.974,406.365c1.428-1.725,2.828-3.471,4.284-5.165c3.635-4.228,7.286-8.439,10.951-12.641c0.637-0.73,0.846-1.343,0.368-2.333
		c-1.993-4.14-3.646-8.432-5.149-12.778c-1.643-4.756-3.256-9.524-4.673-14.351c-1.097-3.728-2.181-7.449-3.304-11.165
		c-0.682-2.249-1.405-4.487-2.146-6.719c-0.398-1.194-0.449-1.22-1.606-0.644c-1.2,0.596-2.435,0.971-3.781,0.935
		c-1.05-0.564-2.241-0.438-3.353-0.707c-0.662-0.158-0.996,0.155-1.21,0.776c-0.374,1.084-0.805,2.151-1.231,3.219
		c-4.441,11.088-8.433,22.338-12.186,33.674c-0.759,2.287-1.399,4.609-2.19,6.887c-0.455,1.308-0.257,2.292,0.81,3.208
		c0.742,0.636,1.31,1.474,2.003,2.173c2.517,2.522,4.981,5.09,7.647,7.464c3.394,3.022,6.716,6.126,10.41,8.796
		c0.784,0.566,1.486,1.689,2.412,1.506C293.916,408.322,294.342,407.117,294.974,406.365z M227.731,155.662
		c1.516,0.209,3.05,0.215,4.573,0.333c3.707,0.287,7.433,0.119,11.154,0.317c5.96,0.314,11.931-0.099,17.897-0.267
		c1.855-0.05,3.712-0.103,5.569-0.202c4.093-0.217,8.186-0.477,12.28-0.69c3.709-0.195,7.418-0.472,11.114-0.819
		c4.836-0.451,9.681-0.854,14.497-1.529c4.489-0.631,9.009-1.076,13.484-1.794c8.309-1.332,16.584-2.876,24.769-4.863
		c3.28-0.798,6.623-1.371,9.803-2.558c2.405-0.5,4.813-0.989,7.181-1.662c0.9-0.253,1.751-0.583,2.587-1.008
		c0.521-0.263,0.716-0.591,0.781-1.125c0.393-3.192,0.813-6.382,1.204-9.574c0.096-0.777-0.16-0.999-0.958-0.778
		c-4.162,1.149-8.321,2.326-12.479,3.495c-1.807,0.184-3.521,0.787-5.269,1.222c-8.871,2.206-17.736,4.437-26.723,6.145
		c-7.15,1.357-14.298,2.722-21.494,3.796c-3.573,0.532-7.161,0.963-10.749,1.35c-3.866,0.416-7.744,0.692-11.609,1.099
		c-4.469,0.469-8.953,0.752-13.437,0.866c-8.283,0.206-16.57,0.143-24.856,0.019c-0.548-0.007-1.098-0.017-1.646-0.062
		c-3-0.236-5.997-0.557-9.011-0.589c-0.537-0.095-1.072-0.25-1.613-0.272c-3.771-0.16-7.516-0.629-11.248-1.106
		c-6.277-0.802-12.521-1.869-18.729-3.116c-1.246-0.248-2.491-0.658-3.843-0.611c0.194,1.515,0.354,2.918,0.557,4.312
		c0.251,1.725,0.539,3.447,0.81,5.169c0.124,0.791,0.468,1.25,1.382,1.285c1.141,0.043,2.283,0.211,3.412,0.404
		c3.227,0.552,6.49,0.816,9.738,1.183c2.98,0.337,5.991,0.412,8.966,0.783c1.47,0.182,2.941,0.187,4.406,0.344
		C222.724,155.427,225.222,155.641,227.731,155.662z M392.884,445.037c0.841-3.537,1.469-7.105,1.906-10.7
		c-0.708-0.133-1.146,0.133-1.604,0.307c-8.811,3.345-17.82,6.065-26.893,8.588c-8.438,2.349-17.016,4.104-25.61,5.763
		c-5.964,1.144-11.972,2.048-18.002,2.736c-5.811,0.669-11.625,1.282-17.458,1.752c-4.471,0.361-8.949,0.546-13.423,0.765
		c-4.104,0.204-8.221,0.118-12.336,0.164c-5.806,0.062-11.614-0.031-17.413-0.347c-4.419-0.251-8.834-0.588-13.249-0.935
		c-5.342-0.418-10.678-0.883-15.997-1.512c-8.802-1.036-17.545-2.477-26.243-4.161c-8.818-1.715-17.527-3.884-26.119-6.513
		c-2.664-0.818-5.299-1.721-7.947-2.584c-0.297,0.587-0.101,1.134-0.017,1.659c0.275,1.725,0.579,3.451,0.911,5.167
		c0.623,3.215,1.188,6.441,2.282,9.542c0.978,3.986,2.251,7.882,3.727,11.706c2.239,5.804,5.295,11.175,8.755,16.33
		c2.851,4.249,5.914,8.302,10.32,11.104c0.554,0.358,1.093,0.735,1.618,1.129c7.762,5.811,16.503,9.689,25.613,12.758
		c8.104,2.726,16.413,4.683,24.909,5.79c5.479,0.72,10.966,1.455,16.483,1.576c10.574,0.23,21.137,0.052,31.666-1.25
		c7.279-0.898,14.526-1.884,21.629-3.787c3.919-1.048,7.703-2.543,11.629-3.528c7.396-1.859,14.55-4.375,21.473-7.546
		c5.492-2.518,10.629-5.646,15.433-9.317c1.605-1.225,3.361-2.302,4.686-3.849c3.718-4.339,6.846-9.093,9.664-14.055
		c2.411-4.247,4.366-8.704,5.871-13.345C390.582,454.033,392.023,449.611,392.884,445.037z M382.267,182.665
		c-0.14-0.355-0.246-0.723-0.422-1.06c-2.327-4.399-4.762-8.739-7.761-12.723c-2.792-3.715-5.476-7.527-8.815-10.789
		c-2.764-2.7-5.881-4.876-9.578-6.157c-0.816-0.283-1.39-0.216-2.078,0.359c-1.973,1.646-3.943,3.303-6.104,4.709
		c-0.201,0.131-0.462,0.274-0.438,0.604c1.761,1.293,3.559,2.52,5.034,4.177c1.675,1.886,3.104,3.931,4.37,6.103
		c0.684,1.609,1.485,3.179,2.024,4.833c1.721,5.276,2.754,10.651,2.715,16.255c-0.041,6.004-1.599,11.563-4.151,16.899
		c-1.504,3.139-3.706,5.768-6.102,8.291c-2.809,2.951-6.126,5.057-9.761,6.78c-3.49,1.654-7.137,2.706-10.974,3.111
		c-3.697,0.391-7.399,0.708-11.104,0.059c-6.126-1.072-12.045-2.716-17.35-6.131c-3.369-2.17-6.554-4.524-9.142-7.637
		c-3.061-3.687-5.692-7.606-7.306-12.156c-0.443-1.685-0.93-3.362-1.313-5.061c-0.672-2.979-1.186-5.95-0.745-9.065
		c0.246-1.735,0.504-3.51,0.578-5.328c-4.387,0.193-8.635,0.388-12.884,0.559c-0.724,0.027-0.803,0.359-0.639,0.951
		c0.602,2.159,0.944,4.365,1.205,6.591c0.296,2.501,0.45,4.987-0.047,7.483c-0.254,1.276-0.444,2.569-0.665,3.857
		c-0.303,0.932-0.641,1.855-0.904,2.8c-1.845,6.576-5.641,12.002-10.563,16.51c-7.246,6.638-16.029,10.154-25.792,10.92
		c-6.598,0.515-13.032-0.342-19.22-3.04c-6.228-2.716-11.074-6.923-14.847-12.47c-1.924-2.823-3.046-6.03-4.217-9.21
		c-3.516-13.562-1.177-26.046,6.935-37.528c-0.434-0.225-0.868-0.445-1.297-0.672c-1.276-0.676-1.694-0.604-2.606,0.511
		c-0.66,0.804-1.278,1.644-1.938,2.447c-7.675,9.329-13.117,19.888-17.133,31.219c-3.798,10.716-5.963,21.805-7.48,33.037
		c-1.105,8.176-1.73,16.397-2.238,24.627c-0.304,4.916-0.354,9.851-0.451,14.777c-0.065,3.326-0.016,3.336,2.827,5.226
		c5.076,3.382,10.517,6.072,16.102,8.489c11.217,4.851,22.697,8.97,34.501,12.161c9.622,2.598,19.288,4.998,29.215,6.159
		c5.194,0.605,10.358,0.66,15.503-0.468c5.3-1.164,10.666-1.893,16.091-2.064c7.807-0.248,15.527,0.574,23.211,1.876
		c1.116,0.188,2.225,0.567,3.411,0.343c1.343-0.254,2.705-0.409,4.065-0.557c8.356-0.909,16.494-2.818,24.504-5.324
		c13.63-4.269,26.37-10.38,38.102-18.543c5.538-3.854,10.796-8.066,15.419-13.016c0.559-0.6,1.137-1.187,1.483-1.948
		c1.082-1.121,1.864-2.412,2.309-3.916c0.22-0.743,0.505-1.476,1.299-1.797c0.587-0.235,0.607-0.694,0.594-1.207
		c-0.043-1.478-0.021-2.964-0.124-4.439c-0.261-3.758-0.559-7.513-0.873-11.265c-0.236-2.832-0.465-5.665-0.788-8.483
		c-0.637-5.529-1.489-11.026-2.507-16.5c-1.83-9.813-4.498-19.379-8.483-28.548C384.1,186.388,383.421,184.413,382.267,182.665z
		 M312.901,323.269c-3.34,5.272-7.402,9.865-12.566,13.432c-1.061,0.73-1.07,0.74-0.659,1.955
		c2.692,7.964,4.815,16.106,7.391,24.111c2.382,7.391,4.8,14.78,8.193,21.779c1.292,2.665,0.77,4.819-1.019,6.904
		c-3.732,4.352-7.509,8.672-11.196,13.067c-1.579,1.873-3.312,3.635-4.634,5.718c-0.438,0.169-0.656,0.551-0.912,0.909
		c-0.475,0.667-0.947,1.336-1.478,1.96c-1.587,1.857-4.316,2.526-5.634,0.138c-0.296-0.536-0.933-0.909-1.459-1.298
		c-6.275-4.619-11.993-9.882-17.56-15.313c-1.523-1.487-2.919-3.105-4.374-4.669c-0.409-0.437-0.836-0.785-1.458-0.987
		c-1.607-0.515-2.155-1.682-1.639-3.331c1.585-5.058,3.107-10.14,4.812-15.157c3.063-9.009,6.23-17.981,9.76-26.822
		c0.75-1.876,1.462-3.768,2.213-5.646c0.278-0.689,0.143-1.029-0.6-1.361c-4.256-1.891-7.934-4.607-11.143-7.986
		c-4.377-4.607-7.576-9.869-9.07-16.102c-0.05-0.209-0.081-0.536-0.472-0.629c-5.107,4.422-10.321,8.773-14.666,14.031
		c-1.458,1.765-3.051,3.459-3.855,5.67c-0.46,1.265-1.045,2.318-2.632,2.237c-0.148-0.007-0.332,0.071-0.448,0.171
		c-1.17,0.987-2.53,0.823-3.912,0.719c-2.741-0.206-5.401-0.809-8.034-1.544c-9.061-2.524-17.596-6.29-25.75-10.947
		c-11.566-6.609-21.79-14.85-30.436-25.014c-0.192-0.225-0.356-0.592-0.908-0.33c0.484,4.582,0.123,9.239,0.467,13.88
		c-0.112,2.46,0.04,4.916,0.111,7.376c0.143,4.921,0.179,9.849,0.33,14.774c0.199,6.571,0.234,13.148,0.329,19.722
		c0.272,18.971-0.285,37.951,0.356,56.917c0.106,3.12,0.102,6.234,0.312,9.353c0.233,3.487,0.549,6.975,0.744,10.461
		c0.057,1.006,0.411,1.373,1.306,1.722c8.714,3.333,17.734,5.609,26.788,7.759c7.129,1.69,14.354,2.9,21.585,4.068
		c7.175,1.165,14.378,2.068,21.615,2.712c5.114,0.453,10.233,0.863,15.36,1.184c5.025,0.307,10.047,0.558,15.078,0.593
		c7.123,0.056,14.246,0.02,21.368-0.271c4.373-0.185,8.735-0.48,13.092-0.837c3.971-0.322,7.931-0.767,11.893-1.21
		c7.114-0.792,14.197-1.813,21.228-3.177c11.662-2.256,23.23-4.895,34.567-8.484c6.419-2.031,12.828-4.078,19.097-6.544
		c0.878-0.348,1.268-0.777,1.329-1.762c0.243-3.92,0.631-7.832,0.88-11.752c0.216-3.385,0.099-6.78,0.307-10.17
		c0.209-3.391,0.128-6.795,0.141-10.195c0.017-4.885,0.002-9.766,0.005-14.652c0.011-13.545-0.076-27.09,0.224-40.637
		c0.007-0.38,0.044-0.766,0.059-1.146c0.126-3.331-0.071-6.67,0.204-9.996c0.118-9.713,0.551-19.426,0.356-29.174
		c-0.243,0.133-0.344,0.296-0.447,0.459c-1.893,2.891-3.858,5.709-6.17,8.297c-5.298,5.922-11.377,10.895-18.021,15.206
		c-5.014,3.255-10.292,6.017-15.677,8.599c-5.439,2.606-11.138,4.55-16.755,6.699c-1.438,0.546-2.563,0.015-3.271-1.361
		c-0.35-0.679-0.62-1.4-0.981-2.076c-1.997-3.721-4.318-7.233-6.975-10.521c-3.388-4.189-7.124-8.016-11.63-11.027
		c-0.347-0.234-0.649-0.623-1.237-0.472C316.162,316.833,314.562,320.065,312.901,323.269z M325.021,220.35
		c1.542-0.055,3.063-0.19,4.582-0.37c7.138-0.847,13.282-3.663,18.396-8.809c4.413-4.444,6.875-9.87,8.151-15.825
		c0.988-4.61,0.921-9.314,0.036-13.998c-0.869-4.598-2.098-9.053-4.549-13.078c-1.968-3.228-4.477-5.916-7.913-7.653
		c-0.655-0.332-1.148-0.393-1.799,0.022c-6.715,4.259-13.85,7.669-21.339,10.327c-7.271,2.578-14.677,4.649-22.313,5.86
		c-2.857,0.455-5.69,1.045-8.58,1.3c-0.674,0.058-1.253,0.21-1.398,1.08c-0.764,4.552-1.014,9.062,0.069,13.636
		c1.506,6.356,4.479,11.888,9.081,16.439C305.054,216.808,314.436,220.139,325.021,220.35z M198.078,192.048
		c-0.101,4.842,0.848,9.452,2.699,13.908c2.289,5.514,5.869,9.95,10.833,13.264c5.496,3.666,11.662,5.038,18.161,5.263
		c2.807,0.097,5.542-0.393,8.286-0.898c5.988-1.1,11.37-3.583,16.129-7.306c6.095-4.762,10.108-10.914,12.107-18.455
		c1.536-5.794,1.117-11.456-0.378-17.131c-0.421-1.595-0.47-1.548-2.121-1.595c-4.206-0.121-8.41-0.327-12.599-0.749
		c-5.979-0.602-11.934-1.395-17.833-2.554c-8.861-1.738-17.621-3.852-25.992-7.325c-0.644-0.267-1.001-0.152-1.409,0.302
		c-1.062,1.185-2.036,2.436-2.827,3.816C199.68,178.618,198.384,185.208,198.078,192.048z M397.921,267.28
		c-0.337-0.005-0.422,0.23-0.541,0.382c-2.337,2.987-5.063,5.601-7.932,8.057c-7.931,6.788-16.59,12.513-25.866,17.286
		c-5.937,3.05-12.052,5.702-18.361,7.918c-7.139,2.502-14.406,4.508-21.833,5.952c-1.743,0.34-3.526,0.491-5.339,1.034
		c1.382,0.896,2.705,1.656,3.927,2.561c5.283,3.905,9.717,8.643,13.559,13.957c1.831,2.532,3.601,5.105,5.01,7.896
		c0.371,0.738,0.807,0.962,1.549,0.584c0.189-0.097,0.419-0.116,0.626-0.191c9.531-3.349,18.653-7.576,27.169-13.019
		c8.737-5.587,16.629-12.126,22.393-20.921c2.492-3.806,4.277-7.869,4.656-12.459c0.056-0.678,0.209-1.368,0.738-1.771
		c0.585-0.446,0.583-0.98,0.58-1.587C398.243,277.753,398.344,272.548,397.921,267.28z M168.829,281.304
		c0,3.048,0.012,5.773-0.009,8.499c-0.005,0.501,0.312,0.792,0.565,1.139c4.136,5.616,8.781,10.783,14.012,15.388
		c5.885,5.187,12.232,9.746,19.056,13.631c7.254,4.125,14.824,7.535,22.813,9.974c3.039,0.926,6.125,1.648,9.294,1.979
		c1.064,0.106,1.873-0.078,2.229-1.285c0.178-0.61,0.619-1.151,0.993-1.688c3.924-5.6,8.783-10.332,13.897-14.819
		c1.661-1.456,3.335-2.903,5.185-4.514c-2.413-0.229-4.573-0.375-6.715-0.653c-6.017-0.78-11.957-1.96-17.863-3.356
		c-11.243-2.652-22.313-5.866-33.126-9.937c-7.109-2.682-14.154-5.517-20.949-8.939C175.086,285.148,172.09,283.352,168.829,281.304
		z M423.539,346.518c-2.097-1.271-4.363-2.197-6.714-2.946c-1.241-0.393-1.892-1.476-1.592-2.491c0.342-1.148,1.48-1.83,2.712-1.455
		c3.192,0.971,6.292,2.154,8.933,4.278c0.772-1.57,0.866-2.539,0.505-4.1c-0.556-2.385-1.955-4.28-3.552-6.017
		c-3.308-3.597-7.329-6.221-11.779-8.19c-2.57-1.142-5.278-1.787-8.045-2.214c-1.286-0.196-1.438-0.05-1.455,1.208
		c-0.025,2.021-0.107,4.038-0.194,6.06c-0.17,3.992-0.116,7.997-0.136,11.997c-0.015,3.543,0,3.543,3.345,4.788
		c0.256,0.098,0.517,0.18,0.777,0.264c2.901,0.968,5.899,1.056,8.922,1.022c2.561-0.029,4.982-0.622,7.357-1.505
		C422.963,347.089,423.386,347.023,423.539,346.518z M358.464,502.205c0.173,0.261,0.246,0.415,0.352,0.536
		c3.809,4.52,8.17,8.403,13.408,11.196c2.219,1.179,4.596,2.068,7.188,2.063c1.151,0,1.232-0.092,0.967-1.23
		c-0.399-1.7-0.742-3.421-1.357-5.064c-0.261-0.693-0.308-1.384,0.146-2.041c0.887-1.282,2.686-1.144,3.511,0.306
		c0.603,1.057,0.791,2.267,1.161,3.41c0.256,0.797,0.142,1.726,0.809,2.507c1.886-2.104,2.275-4.621,2.021-7.117
		c-0.628-6.136-3.274-11.404-7.554-15.846c-1.894-1.967-1.961-2.002-3.932-0.112c-2.986,2.864-6.403,5.14-9.853,7.36
		C363.134,499.592,360.82,500.833,358.464,502.205z M206.68,505.075c-1.598-0.939-2.93-1.69-4.228-2.491
		c-4.204-2.595-8.208-5.473-11.787-8.878c-1.161-1.103-2.146-0.898-3.306-0.353c-0.743,0.347-1.457,0.775-2.046,1.353
		c-5.216,5.136-7.991,11.293-7.679,18.695c0.068,1.618,0.506,3.155,1.608,4.621c0.816-1.625,1.395-3.16,2.305-4.529
		c0.942-1.414,1.881-2.828,3.131-3.992c0.629-0.592,1.802-0.699,2.444-0.296c0.672,0.419,0.955,1.216,0.744,2.18
		c-0.117,0.541-0.37,1.017-0.729,1.449c-0.559,0.674-1.083,1.385-1.606,2.083c-0.958,1.288-1.637,2.722-2.191,4.213
		c-0.313,0.843-0.075,1.077,0.843,0.897c1.404-0.275,2.734-0.734,3.99-1.449c2.729-1.557,5.09-3.595,7.504-5.575
		C199.096,510.205,202.479,507.346,206.68,505.075z M145.839,349.963c1.708,1.077,3.289,1.655,4.978,1.895
		c5.09,0.715,9.818,0.285,13.409-4.077c0.478-0.584,0.652-1.054,0.645-1.716c-0.037-3.014-0.117-6.026-0.087-9.037
		c0.028-2.74-0.414-5.464-0.246-8.199c0.005-0.112-0.008-0.221-0.008-0.33c0-0.508-0.287-0.671-0.742-0.609
		c-0.324,0.048-0.647,0.114-0.963,0.199c-5.47,1.454-10.385,4.038-14.911,7.393c-2.14,1.582-3.95,3.485-5.026,5.957
		c-0.754,1.73-0.988,3.517,0.04,5.351c0.932-0.437,1.665-1.001,2.411-1.542c0.973-0.71,1.926-1.452,2.931-2.114
		s1.999-0.617,2.729,0.021c1.088,0.949,0.949,2.363-0.359,3.328C149.107,347.616,147.557,348.717,145.839,349.963z M347.937,150.383
		c0.041-0.03,0.082-0.059,0.124-0.087c-0.035-0.036-0.064-0.097-0.104-0.102c-0.137-0.02-0.197,0.039-0.148,0.14
		C347.821,150.365,347.892,150.367,347.937,150.383z"/>
	<path fill-rule="evenodd" clip-rule="evenodd" fill="#FFFFFF" d="M298.411,410.236c1.322-2.083,3.055-3.845,4.634-5.718
		c3.688-4.396,7.464-8.716,11.196-13.067c1.788-2.085,2.311-4.239,1.019-6.904c-3.394-6.999-5.812-14.389-8.193-21.779
		c-2.575-8.005-4.698-16.147-7.391-24.111c-0.411-1.215-0.401-1.225,0.659-1.955c5.164-3.566,9.227-8.159,12.566-13.432
		c0.462,0.041,0.81,0.283,1.139,0.597c0.952,0.908,1.756,1.947,2.634,2.92c2.424,2.695,4.459,5.665,6.377,8.726
		c0.957,1.526,1.803,3.135,2.831,4.61c1.178,1.699,2.675,3.024,4.851,3.353c0.641,0.095,1.295,0.266,1.88,0.539
		c2.791,1.302,5.777,1.591,8.783,1.688c3.988,0.126,7.97-0.012,11.937-0.603c2.474-0.373,4.975-0.614,7.413-1.195
		c6.014-1.424,11.926-3.175,17.622-5.626c5.333-2.294,10.615-4.666,15.616-7.637c1.166-0.695,2.168-1.696,3.546-2.02
		c-0.275,3.326-0.078,6.665-0.204,9.996c-0.015,0.38-0.052,0.766-0.059,1.146c-0.3,13.547-0.213,27.092-0.224,40.637
		c-0.003,4.887,0.012,9.768-0.005,14.652c-0.013,3.4,0.068,6.805-0.141,10.195c-0.208,3.39-0.091,6.785-0.307,10.17
		c-0.249,3.92-0.637,7.832-0.88,11.752c-0.062,0.984-0.451,1.414-1.329,1.762c-6.269,2.466-12.678,4.513-19.097,6.544
		c-11.337,3.59-22.905,6.229-34.567,8.484c-7.03,1.364-14.113,2.385-21.228,3.177c-3.962,0.443-7.922,0.888-11.893,1.21
		c-4.356,0.356-8.719,0.652-13.092,0.837c-7.122,0.29-14.245,0.326-21.368,0.271c-5.031-0.035-10.053-0.286-15.078-0.593
		c-5.127-0.32-10.246-0.73-15.36-1.184c-7.236-0.644-14.44-1.547-21.615-2.712c-7.231-1.168-14.456-2.378-21.585-4.068
		c-9.054-2.149-18.074-4.426-26.788-7.759c-0.895-0.349-1.25-0.716-1.306-1.722c-0.195-3.486-0.51-6.974-0.744-10.461
		c-0.209-3.118-0.206-6.232-0.312-9.353c-0.641-18.966-0.084-37.946-0.356-56.917c-0.094-6.573-0.13-13.15-0.329-19.722
		c-0.151-4.926-0.187-9.854-0.33-14.774c-0.071-2.46-0.223-4.916-0.111-7.376c0.275,0.045,0.515,0.152,0.726,0.347
		c3.576,3.303,7.366,6.346,11.246,9.281c6.736,5.101,13.863,9.572,21.348,13.473c6.133,3.196,12.576,5.641,19.191,7.621
		c2.089,0.626,4.235,1.058,6.363,1.54c2.872,0.65,5.771,1.107,8.7,1.468c2.91,0.356,5.668,0.124,8.313-1.126
		c3.376-1.595,6.243-4.018,9.388-5.986c2.677-1.677,5.173-3.66,7.827-5.393c1.57-1.024,1.603-1.072,2.952,0.367
		c2.395,2.556,4.734,5.158,7.102,7.737c0.913,0.992,0.943,0.994,0.29,2.269c-1.079,2.097-2.229,4.153-3.273,6.261
		c-3.118,6.285-6.206,12.591-9.29,18.89c-0.577,1.18-1.122,2.38-1.612,3.6c-0.533,1.321-0.964,2.676-0.819,4.145
		c0.07,0.711,0.049,1.421-0.337,2.078c-1.681,2.864-1.101,5.627,0.608,8.189c2.243,3.364,4.745,6.556,7.505,9.512
		c5.951,6.375,12.37,12.242,19.389,17.434c1.626,1.2,3.221,2.455,5.076,3.308c3.165,1.466,6.837,0.317,8.271-2.466
		C299.041,413.708,299.274,411.987,298.411,410.236z M392.116,367.127c0.004-2.629-0.152-5.248-0.447-7.857
		c-0.068-0.595-0.16-1.202-0.355-1.763c-0.377-1.077-1.836-1.867-2.93-1.658c-1.028,0.199-1.612,0.981-1.569,2.329
		c0.022,0.776-0.238,1.365-0.688,1.95c-0.859,1.12-1.969,1.896-3.265,2.395c-3.308,1.281-6.645,1.15-9.96,0.04
		c-3.077-1.031-5.541-2.807-6.861-5.907c-0.323-0.76-0.91-1.153-1.795-1.188c-2.017-0.076-2.509,0.291-3.158,2.282
		c-1.006,3.094-3.054,5.22-6.084,6.441c-4.198,1.701-10.775-0.007-13.038-3.291c-0.328-0.477-0.769-0.92-1.443-1.001
		c-1.441-0.164-2.417,0.959-2.163,2.548c0.085,0.532,0.345,1.016,0.249,1.602c-0.5,3.099-0.437,6.234-0.135,9.328
		c0.629,6.419,2.409,12.521,5.451,18.25c4.94,9.317,12.305,15.938,21.949,20.104c1.952,0.843,3.68,0.588,5.4-0.628
		c6.328-4.446,11.02-10.286,14.511-17.111C390.094,385.567,392.132,376.583,392.116,367.127z"/>
	<path fill-rule="evenodd" clip-rule="evenodd" fill="#90E4E6" d="M285.326,198.191c1.613,4.55,4.245,8.47,7.306,12.156
		c2.588,3.113,5.772,5.467,9.142,7.637c5.305,3.415,11.224,5.059,17.35,6.131c3.704,0.649,7.406,0.332,11.104-0.059
		c3.837-0.406,7.483-1.458,10.974-3.111c3.635-1.723,6.952-3.829,9.761-6.78c2.396-2.522,4.598-5.151,6.102-8.291
		c2.553-5.335,4.11-10.895,4.151-16.899c0.039-5.604-0.994-10.979-2.715-16.255c-0.539-1.654-1.341-3.223-2.024-4.833
		c0.1-0.679,0.607-0.65,1.116-0.659c2.946-0.053,5.9-0.066,8.819,0.38c0.75,0.114,1.68,0.04,2.208,0.846
		c1.348,2.056,3.025,3.858,4.494,5.815c2.151,2.866,4.771,5.232,7.439,7.56c0.458,0.396,0.962,0.939,1.715,0.835
		c1.154,1.749,1.833,3.723,2.658,5.623c3.985,9.169,6.653,18.736,8.483,28.548c1.018,5.473,1.87,10.971,2.507,16.5
		c0.323,2.818,0.552,5.651,0.788,8.483c0.314,3.751,0.612,7.507,0.873,11.265c0.104,1.475,0.081,2.961,0.124,4.439
		c0.014,0.513-0.007,0.972-0.594,1.207c-0.794,0.322-1.079,1.055-1.299,1.797c-0.444,1.504-1.227,2.795-2.309,3.916
		c-0.729-0.089-1.232,0.348-1.771,0.725c-2.956,2.093-6.087,3.913-9.338,5.476c-3.104,1.49-6.224,2.961-9.408,4.288
		c-5.006,2.085-10.106,3.885-15.346,5.266c-6.96,1.833-13.951,3.528-21.058,4.736c-2.521,0.428-5.044,0.895-7.582,1.146
		c-2.493,0.245-4.987,0.541-7.478,0.791c-3.142,0.317-6.297,0.541-9.438,0.843c-3.743,0.352-7.521,0.568-11.274,0.638
		c-5.523,0.1-11.055,0.321-16.59-0.196c-3.256-0.307-6.552-0.105-9.835-0.335c-2.557-0.173-5.117-0.413-7.69-0.472
		c-1.337-0.027-2.734-0.069-4.07-0.322c-1.665-0.313-3.358-0.313-5.029-0.559c-1.4-0.209-2.838-0.188-4.228-0.434
		c-3.271-0.572-6.564-1.012-9.844-1.496c-4.312-0.633-8.607-1.361-12.888-2.145c-5.843-1.067-11.651-2.337-17.39-3.895
		c-5.005-1.358-10.027-2.663-14.972-4.238c-3.492-1.112-6.973-2.261-10.372-3.645c-1.974-0.804-2.041-0.781-1.991-2.999
		c0.07-3.168-0.157-6.336,0.266-9.514c0.315-2.374,0.124-4.794,0.305-7.201c0.274-3.646,0.592-7.276,1.016-10.908
		c0.458-3.951,1.08-7.873,1.719-11.792c0.562-3.442,1.13-6.882,1.962-10.272c0.871-3.55,1.727-7.108,2.748-10.618
		c0.355-1.221,0.334-2.63,1.351-3.62c1.171,3.18,2.293,6.387,4.217,9.21c3.772,5.547,8.619,9.753,14.847,12.47
		c6.188,2.698,12.622,3.555,19.22,3.04c9.763-0.766,18.545-4.283,25.792-10.92c4.923-4.508,8.719-9.934,10.563-16.51
		c0.264-0.944,0.602-1.868,0.904-2.8C275.653,198.181,280.489,198.186,285.326,198.191z M299.671,251.873
		c1.116,0.324,2.262,0.245,3.394,0.181c3.217-0.187,5.586-1.733,7.001-4.653c1.281-2.645,1.663-5.491,1.169-8.327
		c-1.314-7.509-5.691-12.625-12.731-15.459c-0.738-0.295-1.018-0.546-0.938-1.383c0.324-3.364-1.419-5.728-3.938-7.642
		c-1.785-1.353-3.962-1.708-6.028-2.415c-3.33-1.141-6.614-1.386-10.011-0.802c-4.803,0.823-9.362,2.221-13.143,5.519
		c-1.683,1.471-2.818,3.196-3.079,5.423c-0.093,0.804-0.471,1.168-1.21,1.495c-4.532,2.007-7.938,5.248-10.005,9.756
		c-1.54,3.359-1.957,6.852-0.172,10.292c2.018,3.878,5.408,5.693,9.621,6.254c1.114,0.149,2.266-0.055,3.396,0.292
		c-0.035,0.406-0.036,0.735-0.096,1.056c-0.667,3.58-0.646,7.168,0.02,10.74c0.623,3.362,1.971,6.389,4.574,8.696
		c2.418,2.142,5.233,3.112,8.498,2.527c1.861-0.331,3.617-0.903,5.09-2.129c0.554-0.465,0.813-0.311,1.104,0.266
		c0.526,1.032,1.268,1.905,2.211,2.588c4.444,3.227,11.025,1.72,13.56-3.12c0.611-1.169,0.984-2.435,1.26-3.727
		c0.938-4.385,0.73-8.819,0.561-13.253C299.752,253.358,299.358,252.694,299.671,251.873z"/>
	<path fill-rule="evenodd" clip-rule="evenodd" fill="#90E4E6" d="M392.884,445.037c-0.86,4.574-2.302,8.996-3.734,13.407
		c-1.505,4.641-3.46,9.098-5.871,13.345c-2.818,4.962-5.946,9.716-9.664,14.055c-1.324,1.547-3.08,2.624-4.686,3.849
		c-4.804,3.671-9.94,6.8-15.433,9.317c-6.923,3.171-14.076,5.687-21.473,7.546c-3.926,0.985-7.71,2.48-11.629,3.528
		c-7.103,1.903-14.35,2.889-21.629,3.787c-10.529,1.302-21.092,1.48-31.666,1.25c-5.518-0.121-11.005-0.856-16.483-1.576
		c-8.496-1.107-16.806-3.064-24.909-5.79c-9.11-3.068-17.852-6.947-25.613-12.758c-0.525-0.394-1.064-0.771-1.618-1.129
		c-4.407-2.802-7.47-6.854-10.32-11.104c-3.459-5.155-6.516-10.526-8.755-16.33c-1.476-3.824-2.75-7.72-3.727-11.706
		c0.437,0.015,0.864,0.04,1.3,0.143c1.859,0.418,3.724,0.821,5.596,1.179c3.368,0.648,6.734,1.308,10.116,1.874
		c3.221,0.53,6.459,0.959,9.694,1.414c1.885,0.271,3.794,0.408,5.664,0.76c3.002,0.567,6.045,0.802,9.065,1.17
		c2.645,0.315,5.324,0.484,7.971,0.785c3.305,0.368,6.623,0.536,9.93,0.854c2.979,0.285,5.977,0.501,8.967,0.669
		c3.98,0.214,7.957,0.454,11.935,0.669c5.19,0.275,10.394-0.082,15.6,0.3c3.198,0.235,6.438,0.021,9.673-0.188
		c5.565-0.358,11.16,0.045,16.747-0.332c2.661-0.184,5.333-0.567,8.02-0.413c0.163,0.01,0.33-0.021,0.492-0.052
		c1.93-0.378,3.896-0.454,5.849-0.563c1.636-0.091,3.275-0.254,4.884-0.463c2.536-0.327,5.089-0.521,7.629-0.843
		c2.104-0.261,4.202-0.593,6.32-0.802c2.43-0.234,4.819-0.858,7.244-1.19c4.326-0.581,8.563-1.602,12.823-2.511
		c4.589-0.979,9.134-2.149,13.658-3.399c7.282-2.012,14.416-4.441,21.497-7.061c1.743-0.644,3.497-1.262,5.248-1.879
		C392.044,444.69,392.54,444.399,392.884,445.037z"/>
	<path fill-rule="evenodd" clip-rule="evenodd" fill="#84CCCE" d="M195.274,203.69c-1.017,0.99-0.996,2.399-1.351,3.62
		c-1.021,3.509-1.877,7.068-2.748,10.618c-0.832,3.39-1.4,6.831-1.962,10.272c-0.639,3.92-1.261,7.841-1.719,11.792
		c-0.424,3.632-0.742,7.262-1.016,10.908c-0.181,2.407,0.01,4.827-0.305,7.201c-0.423,3.178-0.195,6.345-0.266,9.514
		c-0.05,2.218,0.017,2.195,1.991,2.999c3.399,1.383,6.879,2.532,10.372,3.645c4.944,1.575,9.967,2.88,14.972,4.238
		c5.739,1.558,11.547,2.828,17.39,3.895c4.28,0.784,8.576,1.511,12.888,2.145c3.28,0.484,6.573,0.924,9.844,1.496
		c1.39,0.245,2.827,0.225,4.228,0.434c1.671,0.246,3.364,0.246,5.029,0.559c1.336,0.253,2.733,0.295,4.07,0.322
		c2.573,0.059,5.134,0.299,7.69,0.472c3.283,0.229,6.579,0.028,9.835,0.335c5.535,0.518,11.066,0.296,16.59,0.196
		c3.753-0.069,7.531-0.286,11.274-0.638c3.142-0.302,6.297-0.525,9.438-0.843c2.49-0.25,4.984-0.546,7.478-0.791
		c2.538-0.251,5.062-0.718,7.582-1.146c7.106-1.208,14.098-2.903,21.058-4.736c5.239-1.381,10.34-3.181,15.346-5.266
		c3.185-1.327,6.305-2.798,9.408-4.288c3.251-1.563,6.382-3.383,9.338-5.476c0.538-0.377,1.042-0.814,1.771-0.725
		c-0.347,0.761-0.925,1.348-1.483,1.948c-4.623,4.949-9.881,9.162-15.419,13.016c-11.731,8.163-24.472,14.274-38.102,18.543
		c-8.01,2.506-16.147,4.415-24.504,5.324c-1.36,0.147-2.723,0.303-4.065,0.557c-1.187,0.225-2.295-0.154-3.411-0.343
		c-7.684-1.302-15.404-2.124-23.211-1.876c-5.425,0.172-10.791,0.9-16.091,2.064c-5.145,1.128-10.309,1.073-15.503,0.468
		c-9.928-1.161-19.593-3.562-29.215-6.159c-11.804-3.191-23.284-7.311-34.501-12.161c-5.585-2.417-11.026-5.107-16.102-8.489
		c-2.842-1.89-2.892-1.899-2.827-5.226c0.097-4.926,0.147-9.861,0.451-14.777c0.508-8.23,1.133-16.451,2.238-24.627
		c1.518-11.231,3.682-22.32,7.48-33.037c4.017-11.331,9.458-21.89,17.133-31.219c0.661-0.803,1.279-1.643,1.938-2.447
		c0.912-1.115,1.33-1.188,2.606-0.511c0.429,0.228,0.863,0.447,1.297,0.672C194.097,177.644,191.758,190.128,195.274,203.69z"/>
	<path fill-rule="evenodd" clip-rule="evenodd" fill="#45769F" d="M397.33,83.921c-0.784,0.618-1.775,0.448-2.648,0.569
		c-4.097,0.571-8.217,1.016-12.333,1.456c-3.138,0.337-6.302,0.936-9.422,0.779c-2.165-0.109-4.173,0.421-6.266,0.485
		c-1.903,0.059-2.893,1.342-2.477,3.171c0.062,0.265,0.175,0.515,0.266,0.772c-2.358,0.209-4.686-0.266-7.023-0.4
		c-2.712-0.154-5.408-0.594-8.138-0.588c-0.275,0.001-0.563,0.04-0.82-0.032c-2.074-0.591-4.227-0.24-6.339-0.56
		c-2.196-0.333-4.456-0.157-6.694-0.319c-3.753-0.273-7.532-0.269-11.298-0.342c-9.254-0.178-18.515-0.059-27.771-0.06
		c-1.59,0-3.179-0.006-4.766,0.008c-0.473,0.005-1.012-0.137-1.313,0.425c-0.316-0.078-0.644-0.13-0.954-0.236
		c-3.482-1.198-6.75-2.825-9.806-4.884c-0.725-0.488-1.433-1.015-2.202-1.424c-1.767-0.941-3.04-0.554-4.115,1.13
		c-0.292,0.457-0.652,0.875-1.025,1.273c-4.138,4.403-9.493,6.039-15.277,6.625c-2.617,0.264-5.255,0.107-7.84-0.342
		c-2.006-0.348-4.135-0.513-5.695-2.182c-0.591-0.633-1.31-0.479-2.075,0.014c-1.188,0.764-1.324,2.057-1.758,3.205
		c-1.3,0.098-2.593-0.017-3.909,0.236c-2.072,0.401-4.2,0.519-6.304,0.765c-1.455,0.171-2.904,0.394-4.361,0.528
		c-2.164,0.197-4.278,0.785-6.463,0.785c-0.306-3.355,0.587-6.744-0.291-10.082c0.432-0.947-0.125-1.27-0.914-1.457
		c-0.64-0.15-1.185-0.533-1.843-0.675c-1.821-0.392-3.642-0.727-5.514-0.624c-1.291,0.07-2.479-0.358-3.674-0.74
		c-0.494-0.157-0.74-0.565-0.305-1.007c0.949-0.963,1.761-2.055,3.184-2.486c1.512-0.457,2.958-1.132,4.43-1.72
		c0.263-0.106,0.515-0.306,0.482-0.599c-0.036-0.334-0.363-0.374-0.639-0.356c-2.031,0.13-4.033-0.222-6.05-0.329
		c-2.467-0.131-4.89,0.238-7.329,0.598c-4.204,0.62-8.358,1.493-12.538,2.226c-4.457,0.783-8.836,1.921-13.222,3.048
		c-5.279,1.356-10.632,2.411-15.892,3.87c-2.254,0.625-4.129,1.75-5.626,3.484c-1.871,2.167-2.319,4.688-1.315,7.354
		c0.804,2.139,2.543,3.372,4.646,4.104c2.177,0.758,4.468,1.212,6.729,1.255c3.94,0.076,7.861,0.583,11.81,0.414
		c2.137-0.093,4.28-0.028,6.42-0.009c0.523,0.005,1.112-0.192,1.542,0.315c-1.062,0.231-2.097,0.56-3.178,0.729
		c-0.522,0.081-1.266,0.06-1.444,0.845c-3.07,0.025-6.148,0.209-9.208,0.04c-5.571-0.306-11.128-0.84-16.42-2.815
		c-2.263-0.844-4.446-1.853-6.272-3.49c-0.285-0.255-0.566-0.521-0.815-0.81c-1.561-1.817-1.511-3.497,0.103-5.26
		c2.387-2.609,5.419-4.265,8.576-5.667c8.022-3.564,16.409-6.05,24.862-8.364c8.868-2.428,17.841-4.367,26.858-6.088
		c6.974-1.331,13.987-2.466,21.023-3.441c1.134-0.157,2.263-0.353,3.394-0.531c2.095,0.646,4.284,0.671,6.432,0.895
		c3.114,0.324,6.233-0.125,9.339-0.35c3.05-0.219,6.087-0.595,9.151-0.609c0.273-0.001,0.554,0.021,0.82-0.03
		c2.973-0.568,6.004-0.452,8.989-0.53c8.112-0.21,16.234-0.071,24.355-0.07c0.382,0,0.78-0.055,1.148,0.026
		c2.803,0.618,5.668,0.274,8.501,0.516c2.874,0.245,5.773,0.59,8.679,0.451c0.165-0.008,0.332,0.003,0.491,0.039
		c2.04,0.45,4.131,0.395,6.193,0.544c2.779,0.199,5.534,0.597,8.313,0.808c3.202,0.242,6.379,0.8,9.568,1.211
		c3.624,0.466,7.259,0.853,10.87,1.403c3.5,0.536,6.97,1.269,10.465,1.861c5.866,0.993,11.676,2.254,17.474,3.579
		c4.315,0.987,8.602,2.078,12.856,3.295c3.992,1.145,7.992,2.264,11.974,3.446C396.275,83.167,397.053,83.146,397.33,83.921z"/>
	<path fill-rule="evenodd" clip-rule="evenodd" fill="#45769F" d="M351.252,126.133c-3.595,1.135-7.285,1.912-10.931,2.856
		c-8.791,2.279-17.666,4.207-26.589,5.889c-6.664,1.256-13.339,2.466-20.064,3.322c-5.482,0.697-10.974,1.303-16.479,1.777
		c-5.128,0.44-10.256,0.77-15.397,1.017c-7.236,0.345-14.469,0.282-21.699,0.138c-4.918-0.097-9.832-0.596-14.744-0.929
		c-0.32-0.022-0.631-0.161-0.947-0.245c0.003-0.274,0.064-0.562,0-0.82c-0.986-4.017-1.737-8.083-2.458-12.154
		c-0.428-2.408-0.757-4.833-1.144-7.246c-0.301-1.88-0.51-3.773-0.776-5.656c-0.367-2.586-0.578-5.185-0.867-7.775
		c1.945-0.522,3.958-0.638,5.936-0.96c2.144-0.347,4.328-0.43,6.479-0.744c3.123-0.457,6.245-0.894,9.405-0.984
		c0.851,2.478,1.613,4.992,2.787,7.344c3.807,7.625,8.713,14.407,15.277,19.921c4.591,3.857,9.484,7.027,15.712,7.498
		c0.923,0.07,1.759,0.054,2.538-0.323c1.67-0.809,3.33-1.634,4.857-2.716c3.915-2.771,7.383-6.018,10.394-9.737
		c3.529-4.359,6.481-9.075,8.759-14.225c1.621-3.668,2.848-7.45,3.852-11.318c6.173,0.15,12.348-0.259,18.525,0.269
		c3.91,0.336,7.857-0.139,11.79,0.337c2.154,0.262,4.347,0.133,6.529,0.299c3.418,0.259,6.849,0.373,10.26,0.77
		c-0.028,1.585-0.241,3.167-0.455,4.717c-0.476,3.409-0.536,6.842-0.838,10.256c-0.241,2.718-0.06,5.474-0.064,8.213
		C350.899,125.36,350.862,125.809,351.252,126.133z"/>
	<path fill-rule="evenodd" clip-rule="evenodd" fill="#FEFEFE" d="M325.021,220.35c-10.586-0.211-19.968-3.542-27.576-11.07
		c-4.602-4.551-7.575-10.083-9.081-16.439c-1.083-4.574-0.833-9.084-0.069-13.636c0.146-0.87,0.725-1.022,1.398-1.08
		c2.89-0.255,5.723-0.845,8.58-1.3c7.637-1.211,15.042-3.282,22.313-5.86c7.489-2.657,14.624-6.067,21.339-10.327
		c0.65-0.415,1.144-0.354,1.799-0.022c3.437,1.737,5.945,4.425,7.913,7.653c2.451,4.025,3.68,8.48,4.549,13.078
		c0.885,4.684,0.952,9.388-0.036,13.998c-1.276,5.955-3.738,11.381-8.151,15.825c-5.113,5.146-11.258,7.962-18.396,8.809
		C328.084,220.16,326.563,220.295,325.021,220.35z M323.53,206.437c0.677-0.031,1.498,0.069,2.312-0.133
		c3.728-0.925,6.631-2.865,8.497-6.356c2.749-5.146,1.427-11.245-2.668-14.767c-3.549-3.053-7.739-4.422-12.491-2.937
		c-4.126,1.29-7,4.019-8.088,8.107C308.696,199.353,315.828,206.563,323.53,206.437z"/>
	<path fill-rule="evenodd" clip-rule="evenodd" fill="#FEFEFE" d="M198.078,192.048c0.306-6.839,1.602-13.43,5.056-19.46
		c0.791-1.38,1.765-2.631,2.827-3.816c0.408-0.455,0.765-0.569,1.409-0.302c8.372,3.473,17.131,5.586,25.992,7.325
		c5.899,1.16,11.854,1.953,17.833,2.554c4.188,0.422,8.393,0.628,12.599,0.749c1.651,0.046,1.7,0,2.121,1.595
		c1.495,5.676,1.914,11.337,0.378,17.131c-1.999,7.541-6.013,13.693-12.107,18.455c-4.76,3.722-10.141,6.206-16.129,7.306
		c-2.744,0.505-5.479,0.996-8.286,0.898c-6.499-0.225-12.665-1.597-18.161-5.263c-4.964-3.314-8.544-7.75-10.833-13.264
		C198.926,201.5,197.977,196.89,198.078,192.048z M233.337,183.685c-2.797-0.002-5.311,0.714-7.626,2.422
		c-4.466,3.298-6.021,8.985-3.999,14.171c2.502,6.408,9.791,9.803,16.315,7.431c5.284-1.922,8.761-7.519,7.861-13.383
		C244.921,188.037,238.742,183.67,233.337,183.685z"/>
	<path fill-rule="evenodd" clip-rule="evenodd" fill="#84CCCE" d="M392.884,445.037c-0.344-0.638-0.84-0.347-1.288-0.188
		c-1.751,0.617-3.505,1.235-5.248,1.879c-7.081,2.619-14.215,5.049-21.497,7.061c-4.524,1.25-9.069,2.42-13.658,3.399
		c-4.26,0.909-8.497,1.93-12.823,2.511c-2.425,0.332-4.814,0.956-7.244,1.19c-2.118,0.209-4.217,0.541-6.32,0.802
		c-2.54,0.321-5.093,0.516-7.629,0.843c-1.608,0.209-3.248,0.372-4.884,0.463c-1.953,0.108-3.919,0.185-5.849,0.563
		c-0.162,0.03-0.329,0.062-0.492,0.052c-2.687-0.154-5.358,0.229-8.02,0.413c-5.587,0.377-11.182-0.026-16.747,0.332
		c-3.234,0.209-6.475,0.423-9.673,0.188c-5.206-0.382-10.409-0.024-15.6-0.3c-3.979-0.215-7.955-0.455-11.935-0.669
		c-2.991-0.168-5.988-0.384-8.967-0.669c-3.307-0.317-6.625-0.485-9.93-0.854c-2.647-0.301-5.326-0.47-7.971-0.785
		c-3.021-0.368-6.063-0.603-9.065-1.17c-1.87-0.352-3.779-0.489-5.664-0.76c-3.235-0.455-6.474-0.884-9.694-1.414
		c-3.382-0.566-6.748-1.226-10.116-1.874c-1.872-0.357-3.737-0.761-5.596-1.179c-0.437-0.103-0.864-0.128-1.3-0.143
		c-1.094-3.101-1.659-6.327-2.282-9.542c-0.333-1.716-0.636-3.442-0.911-5.167c-0.084-0.525-0.281-1.072,0.017-1.659
		c2.647,0.863,5.283,1.766,7.947,2.584c8.592,2.629,17.301,4.798,26.119,6.513c8.698,1.685,17.441,3.125,26.243,4.161
		c5.319,0.629,10.655,1.094,15.997,1.512c4.415,0.347,8.83,0.684,13.249,0.935c5.799,0.315,11.607,0.408,17.413,0.347
		c4.115-0.046,8.231,0.04,12.336-0.164c4.474-0.219,8.952-0.403,13.423-0.765c5.833-0.47,11.647-1.083,17.458-1.752
		c6.03-0.688,12.038-1.593,18.002-2.736c8.595-1.658,17.173-3.414,25.61-5.763c9.072-2.522,18.082-5.243,26.893-8.588
		c0.457-0.174,0.896-0.439,1.604-0.307C394.353,437.931,393.725,441.5,392.884,445.037z"/>
	<path fill-rule="evenodd" clip-rule="evenodd" fill="#FEFEFE" d="M397.921,267.28c0.423,5.268,0.322,10.473,0.334,15.678
		c0.003,0.607,0.005,1.141-0.58,1.587c-0.529,0.403-0.683,1.094-0.738,1.771c-0.379,4.59-2.164,8.653-4.656,12.459
		c-5.764,8.795-13.655,15.334-22.393,20.921c-8.516,5.442-17.638,9.67-27.169,13.019c-0.207,0.075-0.437,0.095-0.626,0.191
		c-0.742,0.378-1.178,0.154-1.549-0.584c-1.409-2.79-3.179-5.363-5.01-7.896c-3.842-5.314-8.275-10.052-13.559-13.957
		c-1.222-0.904-2.545-1.664-3.927-2.561c1.813-0.543,3.596-0.694,5.339-1.034c7.427-1.444,14.694-3.45,21.833-5.952
		c6.31-2.216,12.425-4.868,18.361-7.918c9.276-4.773,17.936-10.499,25.866-17.286c2.869-2.456,5.595-5.07,7.932-8.057
		C397.499,267.51,397.584,267.275,397.921,267.28z"/>
	<path fill-rule="evenodd" clip-rule="evenodd" fill="#E0E0E0" d="M298.411,410.236c0.863,1.751,0.63,3.472-0.223,5.125
		c-1.435,2.783-5.106,3.932-8.271,2.466c-1.855-0.853-3.45-2.107-5.076-3.308c-7.019-5.191-13.438-11.059-19.389-17.434
		c-2.76-2.956-5.262-6.147-7.505-9.512c-1.709-2.563-2.289-5.325-0.608-8.189c0.386-0.657,0.407-1.367,0.337-2.078
		c-0.145-1.469,0.286-2.823,0.819-4.145c0.49-1.22,1.035-2.42,1.612-3.6c3.084-6.299,6.172-12.604,9.29-18.89
		c1.045-2.107,2.194-4.164,3.273-6.261c0.653-1.274,0.623-1.276-0.29-2.269c-2.367-2.579-4.707-5.182-7.102-7.737
		c-1.35-1.439-1.382-1.392-2.952-0.367c-2.654,1.732-5.15,3.716-7.827,5.393c-3.146,1.969-6.012,4.392-9.388,5.986
		c-2.645,1.25-5.403,1.482-8.313,1.126c-2.929-0.36-5.828-0.817-8.7-1.468c-2.128-0.482-4.274-0.914-6.363-1.54
		c-6.616-1.98-13.059-4.425-19.191-7.621c-7.485-3.9-14.612-8.372-21.348-13.473c-3.88-2.936-7.67-5.979-11.246-9.281
		c-0.211-0.194-0.451-0.302-0.726-0.347c-0.345-4.641,0.017-9.298-0.467-13.88c0.551-0.262,0.716,0.105,0.908,0.33
		c8.646,10.164,18.87,18.404,30.436,25.014c8.154,4.657,16.69,8.423,25.75,10.947c2.633,0.735,5.293,1.338,8.034,1.544
		c1.382,0.104,2.742,0.269,3.912-0.719c0.116-0.1,0.299-0.178,0.448-0.171c1.587,0.081,2.172-0.973,2.632-2.237
		c0.804-2.211,2.398-3.905,3.855-5.67c4.345-5.258,9.559-9.609,14.666-14.031c0.391,0.093,0.422,0.42,0.472,0.629
		c1.494,6.232,4.693,11.494,9.07,16.102c3.209,3.379,6.887,6.096,11.143,7.986c0.742,0.332,0.878,0.672,0.6,1.361
		c-0.751,1.879-1.463,3.771-2.213,5.646c-3.529,8.841-6.696,17.813-9.76,26.822c-1.704,5.018-3.227,10.1-4.812,15.157
		c-0.517,1.649,0.031,2.816,1.639,3.331c0.622,0.202,1.049,0.551,1.458,0.987c1.455,1.563,2.851,3.182,4.374,4.669
		c5.566,5.431,11.284,10.693,17.56,15.313c0.526,0.389,1.163,0.762,1.459,1.298c1.317,2.389,4.047,1.72,5.634-0.138
		c0.53-0.624,1.003-1.293,1.478-1.96C297.755,410.787,297.974,410.405,298.411,410.236z"/>
	<path fill-rule="evenodd" clip-rule="evenodd" fill="#FEFEFE" d="M168.829,281.304c3.261,2.047,6.258,3.844,9.382,5.417
		c6.795,3.423,13.84,6.258,20.949,8.939c10.813,4.07,21.883,7.284,33.126,9.937c5.907,1.396,11.846,2.576,17.863,3.356
		c2.142,0.278,4.302,0.425,6.715,0.653c-1.85,1.61-3.523,3.058-5.185,4.514c-5.114,4.487-9.973,9.22-13.897,14.819
		c-0.375,0.536-0.815,1.077-0.993,1.688c-0.356,1.207-1.165,1.392-2.229,1.285c-3.169-0.33-6.255-1.053-9.294-1.979
		c-7.989-2.438-15.559-5.849-22.813-9.974c-6.823-3.885-13.171-8.444-19.056-13.631c-5.231-4.604-9.876-9.771-14.012-15.388
		c-0.254-0.347-0.571-0.638-0.565-1.139C168.84,287.078,168.829,284.352,168.829,281.304z"/>
	<path fill-rule="evenodd" clip-rule="evenodd" fill="#3F5669" d="M338.379,157.011c-1.406,1.05-3.015,1.761-4.538,2.593
		c-6.804,3.712-13.984,6.526-21.398,8.766c-5.55,1.676-11.195,2.917-16.917,3.853c-3.773,0.619-7.567,0.975-11.369,1.35
		c-7.106,0.702-14.222,0.762-21.33,0.504c-4.021-0.145-8.058-0.386-12.079-0.83c-5.103-0.564-10.176-1.284-15.233-2.111
		c-3.122-0.512-6.188-1.355-9.288-2.004c-5.155-1.08-10.133-2.751-15.071-4.534c-2.674-0.965-5.258-2.179-7.807-3.449
		c-0.388-0.194-0.8-0.369-0.951-0.846c-0.356-1.139,0.183-1.777,1.411-1.608c3.298,0.452,6.615,0.7,9.929,0.993
		c4.514,0.403,9.027,0.746,13.55,1.032c2.352,0.15,4.703,0.099,7.046,0.272c8.158,0.606,16.328,0.289,24.49,0.235
		c3.165-0.02,6.345-0.121,9.507-0.321c3.763-0.235,7.535-0.343,11.285-0.663c3.368-0.288,6.746-0.441,10.107-0.835
		c1.454-0.169,2.929-0.31,4.399-0.42c2.882-0.216,5.753-0.534,8.623-0.884c2.056-0.248,4.117-0.463,6.172-0.739
		c3.675-0.491,7.342-1.023,11.008-1.573c4.537-0.681,9.028-1.569,13.536-2.393c3.708-0.676,7.363-1.601,11.036-2.428
		c0.87-0.196,1.729-0.508,2.82-0.39c-0.55,1.213-1.734,1.489-2.463,2.247c-0.231-0.008-0.46-0.013-0.56,0.262l0.027-0.017
		c-2.278,0.591-4.115,1.861-5.626,3.641l0.025-0.024C338.606,156.794,338.495,156.903,338.379,157.011z"/>
	<path fill-rule="evenodd" clip-rule="evenodd" fill="#E0E0E0" d="M397.529,328.622c-1.378,0.323-2.38,1.324-3.546,2.02
		c-5.001,2.971-10.283,5.343-15.616,7.637c-5.696,2.451-11.608,4.202-17.622,5.626c-2.438,0.581-4.939,0.822-7.413,1.195
		c-3.967,0.591-7.948,0.729-11.937,0.603c-3.006-0.098-5.992-0.387-8.783-1.688c-0.585-0.273-1.239-0.444-1.88-0.539
		c-2.176-0.328-3.673-1.653-4.851-3.353c-1.028-1.476-1.874-3.084-2.831-4.61c-1.918-3.061-3.953-6.03-6.377-8.726
		c-0.878-0.973-1.682-2.012-2.634-2.92c-0.329-0.313-0.677-0.556-1.139-0.597c1.66-3.204,3.261-6.436,3.821-10.019
		c0.588-0.151,0.891,0.237,1.237,0.472c4.506,3.012,8.242,6.838,11.63,11.027c2.656,3.287,4.978,6.8,6.975,10.521
		c0.361,0.676,0.632,1.397,0.981,2.076c0.708,1.376,1.833,1.907,3.271,1.361c5.617-2.149,11.315-4.093,16.755-6.699
		c5.385-2.582,10.663-5.344,15.677-8.599c6.644-4.312,12.723-9.284,18.021-15.206c2.312-2.588,4.277-5.406,6.17-8.297
		c0.104-0.163,0.204-0.326,0.447-0.459C398.08,309.196,397.647,318.909,397.529,328.622z"/>
	<path fill-rule="evenodd" clip-rule="evenodd" fill="#45769F" d="M226.395,146.784c3.015,0.032,6.011,0.353,9.011,0.589
		c0.548,0.044,1.097,0.054,1.646,0.062c8.286,0.124,16.573,0.187,24.856-0.019c4.483-0.113,8.968-0.397,13.437-0.866
		c3.865-0.407,7.743-0.684,11.609-1.099c3.588-0.387,7.176-0.818,10.749-1.35c7.196-1.074,14.344-2.438,21.494-3.796
		c8.986-1.708,17.852-3.938,26.723-6.145c1.748-0.436,3.462-1.038,5.269-1.222c0.166,3.612,0.353,7.223,1.684,10.652
		c-3.18,1.187-6.522,1.759-9.803,2.558c-8.185,1.987-16.46,3.531-24.769,4.863c-4.476,0.718-8.995,1.164-13.484,1.794
		c-4.816,0.675-9.661,1.078-14.497,1.529c-3.696,0.347-7.405,0.624-11.114,0.819c-4.095,0.213-8.188,0.473-12.28,0.69
		c-1.857,0.099-3.714,0.151-5.569,0.202c-5.966,0.168-11.937,0.582-17.897,0.267c-3.721-0.198-7.447-0.031-11.154-0.317
		c-1.523-0.118-3.057-0.124-4.573-0.333c0.132-2.065-0.119-4.075-0.759-6.047C226.674,148.699,226.356,147.774,226.395,146.784z"/>
	<path fill-rule="evenodd" clip-rule="evenodd" fill="#51585D" d="M289.918,341.504c1.347,0.036,2.581-0.339,3.781-0.935
		c1.157-0.576,1.208-0.551,1.606,0.644c0.74,2.231,1.464,4.47,2.146,6.719c1.123,3.716,2.207,7.438,3.304,11.165
		c1.417,4.826,3.03,9.595,4.673,14.351c1.503,4.347,3.156,8.639,5.149,12.778c0.478,0.99,0.269,1.603-0.368,2.333
		c-3.665,4.201-7.316,8.413-10.951,12.641c-1.456,1.694-2.856,3.44-4.284,5.165c-0.078-0.209-0.109-0.443-0.236-0.607
		c-2.086-2.669-4.181-5.329-6.274-7.993c-3.381-4.294-6.583-8.721-9.726-13.193c-0.395-0.563-0.517-1.061-0.374-1.801
		c1.255-6.43,2.743-12.805,4.472-19.12c1.732-6.33,3.561-12.634,6.868-18.373C290.419,344.032,290.441,342.793,289.918,341.504z"/>
	<path fill-rule="evenodd" clip-rule="evenodd" fill="#33648A" d="M219.157,106.307c0.29,2.591,0.5,5.189,0.867,7.775
		c0.266,1.883,0.475,3.775,0.776,5.656c0.387,2.414,0.715,4.838,1.144,7.246c0.721,4.07,1.472,8.137,2.458,12.154
		c0.064,0.258,0.003,0.546,0,0.82c-3.345-0.016-6.637-0.592-9.949-0.956c-6.306-0.692-12.528-1.884-18.756-3.047
		c-1.558-0.292-3.097-0.684-4.655-0.959c-0.586-0.104-0.776-0.357-0.939-0.914c-0.422-1.44-0.356-2.935-0.488-4.389
		c-0.29-3.204-0.561-6.418-0.851-9.621c-0.228-2.503,0.044-5.036-0.512-7.51c-0.069-0.308,0.032-0.652,0.053-0.98
		c1.749-0.073,3.44-0.51,5.148-0.827c3.85-0.714,7.695-1.447,11.546-2.153c2.939-0.54,5.873-1.131,8.831-1.54
		C215.605,106.817,217.343,106.282,219.157,106.307z"/>
	<path fill-rule="evenodd" clip-rule="evenodd" fill="#90E4E6" d="M166.358,199.249c-1.673-0.883-3.029-2.162-4.31-3.516
		c-3.949-4.168-6.894-8.921-8.166-14.582c-1.122-4.997-0.805-9.913,1.357-14.591c1.95-4.22,5.138-7.295,9.267-9.424
		c3.668-1.891,7.54-2.833,11.673-2.897c3.096-0.048,6.116,0.254,9.084,1.153c1.695,0.512,3.31,1.227,4.765,2.175
		c1.07,0.698,1.88,1.799,2.804,2.72c-0.618,0.518-1.408,0.508-2.133,0.682c-2.564,0.608-5.038,1.399-7.282,2.855
		c-1.257,0.815-2.268,1.886-3.414,2.81c-1.643,1.323-2.928,2.95-4.013,4.696c-1.875,3.016-3.644,6.089-5.102,9.355
		c-2.258,5.055-3.774,10.236-3.768,15.807C167.123,197.477,167.002,198.437,166.358,199.249z"/>
	<path fill-rule="evenodd" clip-rule="evenodd" fill="#51585D" d="M267.208,308.873c3.102-0.898,6.284-1.33,9.48-1.698
		c3.197-0.367,6.396-0.671,9.623-0.643c4.151,0.043,8.266,0.446,12.388,0.911c3.738,0.424,7.432,1.084,11.138,1.71
		c2.301,0.388,2.467,0.687,2.026,2.992c-0.979,5.139-3.502,9.469-6.795,13.444c-1.226,1.479-2.578,2.826-3.927,4.179
		c-0.302,0.306-0.554,0.693-1.041,0.75c-0.139-0.071-0.294-0.226-0.415-0.204c-3.672,0.681-7.305,0.199-10.853-0.648
		c-6.68-1.594-12.26-5.087-16.607-10.427C269.744,316.193,268.03,312.743,267.208,308.873z"/>
	<path fill-rule="evenodd" clip-rule="evenodd" fill="#6AA9CE" d="M397.33,83.921c-0.277-0.774-1.055-0.754-1.638-0.926
		c-3.981-1.182-7.981-2.301-11.974-3.446c-4.255-1.217-8.541-2.309-12.856-3.295c-5.798-1.325-11.607-2.586-17.474-3.579
		c-3.495-0.592-6.965-1.325-10.465-1.861c-3.611-0.551-7.246-0.938-10.87-1.403c-3.189-0.411-6.366-0.969-9.568-1.211
		c-2.778-0.211-5.533-0.609-8.313-0.808c-2.063-0.149-4.153-0.095-6.193-0.544c-0.159-0.035-0.326-0.046-0.491-0.039
		c-2.905,0.139-5.805-0.206-8.679-0.451c-2.833-0.241-5.698,0.103-8.501-0.516c-0.368-0.081-0.767-0.026-1.148-0.026
		c-8.121-0.001-16.243-0.14-24.355,0.07c-2.985,0.078-6.017-0.038-8.989,0.53c-0.267,0.051-0.547,0.029-0.82,0.03
		c-3.064,0.014-6.102,0.39-9.151,0.609c-3.106,0.225-6.225,0.674-9.339,0.35c-2.148-0.224-4.337-0.249-6.432-0.895
		c5.809-0.665,11.612-1.391,17.428-1.975c3.806-0.38,7.628-0.592,11.448-0.809c4.04-0.229,8.084-0.392,12.128-0.554
		c4.156-0.167,8.311-0.393,12.475-0.338c3.068,0.04,6.142-0.033,9.211,0.018c4.434,0.071,8.87,0.138,13.3,0.339
		c5.624,0.255,11.251,0.535,16.86,0.997c9.854,0.811,19.704,1.755,29.516,2.981c10.413,1.301,20.796,2.825,31.168,4.434
		c6.737,1.046,13.2,3.021,19.639,5.146c1.665,0.55,3.207,1.401,4.761,2.21c0.682,0.355,1.281,0.811,1.793,1.387
		C408.139,81.888,401.041,83.899,397.33,83.921z"/>
	<path fill-rule="evenodd" clip-rule="evenodd" fill="#43647E" d="M352.257,101.737c-3.411-0.397-6.842-0.511-10.26-0.77
		c-2.183-0.166-4.375-0.037-6.529-0.299c-3.933-0.476-7.88-0.001-11.79-0.337c-6.178-0.528-12.353-0.119-18.525-0.269
		c0.156-0.909,0.374-1.812,0.452-2.726c0.173-1.983,0.842-3.942,0.157-5.975c-0.478-1.425-1.141-1.851-2.567-1.32
		c-0.509,0.19-0.99,0.411-1.543,0.51c-3.916,0.7-7.677,0.071-11.363-1.267c0.301-0.562,0.84-0.42,1.313-0.425
		c1.587-0.014,3.176-0.008,4.766-0.008c9.257,0.001,18.518-0.118,27.771,0.06c3.766,0.073,7.545,0.069,11.298,0.342
		c2.238,0.163,4.498-0.014,6.694,0.319c2.112,0.32,4.265-0.031,6.339,0.56c0.257,0.072,0.545,0.033,0.82,0.032
		c2.729-0.006,5.426,0.434,8.138,0.588c2.338,0.134,4.665,0.609,7.023,0.4c0.728,0.734,1.571,1.145,2.644,1.006
		c0.721-0.094,0.982,0.304,0.937,0.98c-0.168,2.503-0.267,5.012-0.532,7.505c-0.087,0.809,0.017,1.645-0.247,2.436
		c-0.954-0.259-1.931-0.33-2.914-0.41c-1.524-0.121-3.047-0.252-4.572-0.38C357.262,102.083,354.775,101.704,352.257,101.737z"/>
	<path fill-rule="evenodd" clip-rule="evenodd" fill="#90E4E6" d="M370.981,145.535c3.798-1.653,7.789-2.437,11.896-2.816
		c3.523-0.325,6.997-0.091,10.381,0.842c3.123,0.862,6.04,2.162,8.162,4.847c1.404,1.778,2.182,3.755,2.528,5.944
		c0.472,2.988-0.081,5.894-1.085,8.658c-2.577,7.113-6.858,13.011-13.019,17.481c-0.131,0.095-0.275,0.168-0.413,0.253
		c-0.424-0.315-0.33-0.776-0.343-1.208c-0.017-0.548,0.047-1.109-0.051-1.642c-0.733-3.963-1.378-7.93-2.842-11.739
		c-1.162-3.023-2.304-6.027-4.018-8.783c-1.592-2.551-3.076-5.168-5.359-7.22c-1.394-1.252-2.965-2.237-4.47-3.321
		C371.84,146.467,371.096,146.323,370.981,145.535z"/>
	<path fill-rule="evenodd" clip-rule="evenodd" fill="#43647E" d="M219.157,106.307c-1.813-0.025-3.552,0.51-5.327,0.757
		c-2.958,0.409-5.891,1-8.831,1.54c-3.851,0.706-7.696,1.439-11.546,2.153c-1.708,0.317-3.4,0.754-5.148,0.827
		c-0.247-1.563,0.042-3.153-0.323-4.764c0.559-0.175,1.08-0.315,1.582-0.5c1.405-0.514,2.257-1.979,1.893-3.219
		c-0.376-1.28-1.814-2.047-3.328-1.604c-3.163,0.928-6.428,1.125-9.669,1.5c-0.159,0.017-0.325-0.038-0.486-0.06
		c0.178-0.785,0.921-0.764,1.444-0.845c1.081-0.169,2.116-0.498,3.178-0.729c1.957-0.202,3.848-0.747,5.768-1.126
		c6.142-1.21,12.284-2.417,18.454-3.474c2.842-0.487,5.72-0.792,8.534-1.407c1.049-0.228,2.206,0.116,3.155-0.579
		c2.185,0,4.3-0.588,6.463-0.785c1.457-0.134,2.906-0.357,4.361-0.528c2.104-0.247,4.231-0.364,6.304-0.765
		c1.316-0.252,2.609-0.138,3.909-0.236c-0.019,3.121,0.211,6.214,1.089,9.227c0.186,0.638,0.259,1.281,0.347,1.929
		c-3.16,0.091-6.282,0.527-9.405,0.984c-2.151,0.314-4.335,0.397-6.479,0.744C223.114,105.669,221.102,105.785,219.157,106.307z"/>
	<path fill-rule="evenodd" clip-rule="evenodd" fill="#8C8C8C" d="M289.918,341.504c0.523,1.289,0.501,2.527-0.215,3.772
		c-3.308,5.739-5.136,12.043-6.868,18.373c-1.729,6.315-3.217,12.69-4.472,19.12c-0.143,0.74-0.021,1.238,0.374,1.801
		c3.143,4.473,6.345,8.899,9.726,13.193c2.094,2.664,4.188,5.324,6.274,7.993c0.127,0.164,0.158,0.398,0.236,0.607
		c-0.632,0.752-1.058,1.957-1.943,2.135c-0.926,0.184-1.628-0.939-2.412-1.506c-3.694-2.67-7.017-5.773-10.41-8.796
		c-2.666-2.374-5.131-4.941-7.647-7.464c-0.693-0.699-1.261-1.537-2.003-2.173c-1.066-0.916-1.265-1.9-0.81-3.208
		c0.791-2.277,1.432-4.6,2.19-6.887c3.753-11.336,7.744-22.586,12.186-33.674c0.427-1.067,0.857-2.135,1.231-3.219
		c0.214-0.621,0.548-0.935,1.21-0.776C287.677,341.066,288.868,340.94,289.918,341.504z"/>
	<path fill-rule="evenodd" clip-rule="evenodd" fill="#C4B499" d="M423.539,346.518c-0.153,0.505-0.576,0.571-0.916,0.699
		c-2.375,0.883-4.797,1.476-7.357,1.505c-3.022,0.033-6.021-0.055-8.922-1.022c-0.261-0.084-0.521-0.166-0.777-0.264
		c-3.345-1.245-3.359-1.245-3.345-4.788c0.02-4-0.034-8.005,0.136-11.997c0.087-2.021,0.169-4.038,0.194-6.06
		c0.017-1.258,0.169-1.404,1.455-1.208c2.767,0.427,5.475,1.072,8.045,2.214c4.45,1.97,8.472,4.594,11.779,8.19
		c1.597,1.736,2.996,3.632,3.552,6.017c0.361,1.561,0.268,2.529-0.505,4.1c-2.641-2.124-5.74-3.308-8.933-4.278
		c-1.231-0.375-2.37,0.307-2.712,1.455c-0.3,1.016,0.351,2.099,1.592,2.491C419.176,344.321,421.442,345.247,423.539,346.518z"/>
	<path fill-rule="evenodd" clip-rule="evenodd" fill="#C4B499" d="M358.464,502.205c2.356-1.372,4.67-2.612,6.866-4.033
		c3.449-2.221,6.866-4.496,9.853-7.36c1.971-1.89,2.038-1.854,3.932,0.112c4.279,4.441,6.926,9.71,7.554,15.846
		c0.255,2.496-0.135,5.014-2.021,7.117c-0.667-0.781-0.553-1.71-0.809-2.507c-0.37-1.144-0.559-2.354-1.161-3.41
		c-0.825-1.449-2.624-1.588-3.511-0.306c-0.453,0.657-0.406,1.348-0.146,2.041c0.615,1.644,0.958,3.364,1.357,5.064
		c0.266,1.139,0.185,1.23-0.967,1.23c-2.593,0.006-4.97-0.884-7.188-2.063c-5.238-2.793-9.6-6.677-13.408-11.196
		C358.71,502.62,358.637,502.465,358.464,502.205z"/>
	<path fill-rule="evenodd" clip-rule="evenodd" fill="#C4B499" d="M206.68,505.075c-4.2,2.271-7.583,5.13-11.002,7.928
		c-2.414,1.98-4.775,4.019-7.504,5.575c-1.255,0.715-2.585,1.174-3.99,1.449c-0.918,0.18-1.156-0.055-0.843-0.897
		c0.554-1.491,1.232-2.925,2.191-4.213c0.523-0.698,1.047-1.409,1.606-2.083c0.358-0.433,0.611-0.908,0.729-1.449
		c0.211-0.964-0.071-1.761-0.744-2.18c-0.642-0.403-1.815-0.296-2.444,0.296c-1.25,1.164-2.189,2.578-3.131,3.992
		c-0.91,1.369-1.489,2.904-2.305,4.529c-1.102-1.466-1.54-3.003-1.608-4.621c-0.312-7.402,2.463-13.56,7.679-18.695
		c0.59-0.577,1.304-1.006,2.046-1.353c1.16-0.546,2.145-0.75,3.306,0.353c3.578,3.405,7.583,6.283,11.787,8.878
		C203.75,503.384,205.082,504.135,206.68,505.075z"/>
	<path fill-rule="evenodd" clip-rule="evenodd" fill="#C4B499" d="M145.839,349.963c1.718-1.246,3.269-2.348,4.799-3.481
		c1.308-0.965,1.447-2.379,0.359-3.328c-0.73-0.639-1.725-0.684-2.729-0.021s-1.958,1.404-2.931,2.114
		c-0.746,0.541-1.479,1.105-2.411,1.542c-1.028-1.834-0.794-3.62-0.04-5.351c1.076-2.472,2.886-4.375,5.026-5.957
		c4.526-3.354,9.441-5.938,14.911-7.393c0.316-0.085,0.64-0.151,0.963-0.199c0.455-0.062,0.742,0.102,0.742,0.609
		c0,0.109,0.013,0.218,0.008,0.33c-0.167,2.735,0.274,5.459,0.246,8.199c-0.03,3.011,0.05,6.023,0.087,9.037
		c0.008,0.662-0.167,1.132-0.645,1.716c-3.59,4.362-8.319,4.792-13.409,4.077C149.127,351.619,147.546,351.041,145.839,349.963z"/>
	<path fill-rule="evenodd" clip-rule="evenodd" fill="#33648A" d="M226.395,146.784c-0.039,0.99,0.279,1.915,0.577,2.831
		c0.641,1.972,0.891,3.982,0.759,6.047c-2.509-0.021-5.007-0.235-7.5-0.502c-1.465-0.157-2.936-0.162-4.406-0.344
		c-2.975-0.371-5.986-0.446-8.966-0.783c-3.248-0.367-6.511-0.631-9.738-1.183c-1.128-0.193-2.271-0.361-3.412-0.404
		c-0.915-0.035-1.259-0.495-1.382-1.285c-0.271-1.723-0.558-3.444-0.81-5.169c-0.203-1.394-0.362-2.797-0.557-4.312
		c1.352-0.047,2.598,0.363,3.843,0.611c6.208,1.247,12.451,2.314,18.729,3.116c3.732,0.477,7.478,0.947,11.248,1.106
		C225.323,146.534,225.858,146.689,226.395,146.784z"/>
	<path fill-rule="evenodd" clip-rule="evenodd" fill="#6AA9CE" d="M352.257,101.737c2.519-0.033,5.005,0.346,7.508,0.554
		c1.525,0.128,3.048,0.259,4.572,0.38c0.983,0.08,1.96,0.151,2.914,0.41c-0.002,0.508-0.005,1.018-0.01,1.526
		c-0.151,0.097-0.215,0.231-0.167,0.412c-0.317,4.505-0.807,8.994-1.289,13.483c-0.086,0.814-0.099,1.634-0.166,2.45
		c-0.072,0.884-0.422,1.418-1.41,1.682c-4.321,1.157-8.595,2.49-12.957,3.5c-0.39-0.324-0.353-0.773-0.353-1.21
		c0.005-2.739-0.177-5.495,0.064-8.213c0.302-3.414,0.362-6.847,0.838-10.256C352.016,104.903,352.229,103.322,352.257,101.737z"/>
	<path fill-rule="evenodd" clip-rule="evenodd" fill="#84CCCE" d="M382.267,182.665c-0.753,0.104-1.257-0.439-1.715-0.835
		c-2.668-2.328-5.288-4.693-7.439-7.56c-1.469-1.957-3.146-3.759-4.494-5.815c-0.528-0.807-1.458-0.732-2.208-0.846
		c-2.919-0.446-5.873-0.433-8.819-0.38c-0.509,0.009-1.017-0.02-1.116,0.659c-1.267-2.171-2.695-4.216-4.37-6.103
		c-1.476-1.658-3.273-2.884-5.034-4.177c-0.024-0.33,0.236-0.472,0.438-0.604c2.161-1.407,4.132-3.063,6.104-4.709
		c0.688-0.576,1.262-0.642,2.078-0.359c3.697,1.28,6.814,3.457,9.578,6.157c3.34,3.262,6.023,7.074,8.815,10.789
		c2.999,3.984,5.434,8.323,7.761,12.723C382.021,181.941,382.127,182.309,382.267,182.665z"/>
	<path fill-rule="evenodd" clip-rule="evenodd" fill="#84CCCE" d="M166.358,199.249c0.644-0.812,0.765-1.772,0.763-2.757
		c-0.006-5.57,1.51-10.752,3.768-15.807c1.458-3.266,3.226-6.339,5.102-9.355c1.084-1.746,2.37-3.373,4.013-4.696
		c1.146-0.923,2.157-1.994,3.414-2.81c2.245-1.456,4.718-2.247,7.282-2.855c0.725-0.174,1.515-0.164,2.133-0.682
		c2.409,1.632,2.398,1.625,0.642,3.827c-1.873,2.349-3.773,4.678-5.417,7.197c-0.393,0.6-0.765,0.933-1.591,0.745
		c-2.84-0.646-5.357,0.332-7.5,2.05c-3.696,2.961-5.68,6.847-5.645,11.674c0.018,2.569,0.84,4.835,2.511,6.759
		c0.43,0.498,0.481,0.842,0.255,1.43c-0.808,2.088-1.583,4.191-2.293,6.315c-0.24,0.722-0.623,0.864-1.316,0.888
		C170.197,201.254,168.182,200.575,166.358,199.249z"/>
	<path fill-rule="evenodd" clip-rule="evenodd" fill="#84CCCE" d="M285.326,198.191c-4.837-0.005-9.673-0.01-14.51-0.012
		c0.221-1.289,0.411-2.581,0.665-3.857c0.497-2.496,0.343-4.982,0.047-7.483c-0.261-2.226-0.604-4.432-1.205-6.591
		c-0.164-0.591-0.085-0.923,0.639-0.951c4.249-0.171,8.497-0.366,12.884-0.559c-0.074,1.817-0.332,3.593-0.578,5.328
		c-0.44,3.115,0.073,6.085,0.745,9.065C284.396,194.829,284.883,196.506,285.326,198.191z"/>
	<path fill-rule="evenodd" clip-rule="evenodd" fill="#8C8C8C" d="M267.208,308.873c0.822,3.87,2.536,7.32,5.018,10.366
		c4.348,5.34,9.928,8.833,16.607,10.427c3.548,0.848,7.181,1.329,10.853,0.648c0.121-0.021,0.276,0.133,0.415,0.204
		c-2.407,2.289-5.193,4.019-8.211,5.348c-1.326,0.585-2.804,0.386-4.213,0.115c-4.112-0.799-7.771-2.597-11.096-5.096
		c-5.161-3.884-8.901-8.852-11.178-14.901c-0.459-1.22-0.765-2.513-1.043-3.794C263.943,310.281,264.887,308.854,267.208,308.873z"
		/>
	<path fill-rule="evenodd" clip-rule="evenodd" fill="#84CCCE" d="M370.981,145.535c0.114,0.788,0.858,0.932,1.368,1.297
		c1.505,1.084,3.076,2.069,4.47,3.321c2.283,2.052,3.768,4.669,5.359,7.22c1.714,2.756,2.855,5.76,4.018,8.783
		c1.464,3.81,2.108,7.776,2.842,11.739c0.098,0.533,0.034,1.093,0.051,1.642c0.013,0.432-0.081,0.893,0.343,1.208
		c-0.301,0.23-0.587,0.482-0.905,0.688c-0.271,0.176-0.578,0.301-0.918,0.472c-1.126-2.085-2.23-4.152-3.362-6.202
		c-0.255-0.461-0.085-0.82,0.063-1.239c0.931-2.591,1.085-5.25,0.438-7.913c-1.365-5.617-6.26-8.95-10.854-8.901
		c-0.736,0.007-1.484,0.679-2.188,0.081c-0.582-0.495-1.085-1.088-1.594-1.66c-1.793-2.013-3.763-3.823-5.996-5.341
		c-0.846-0.574-0.859-0.846-0.026-1.437C366.238,147.771,368.485,146.42,370.981,145.535z"/>
	<path fill-rule="evenodd" clip-rule="evenodd" fill="#6AA9CE" d="M352.872,143.591c-1.331-3.43-1.518-7.04-1.684-10.652
		c4.157-1.168,8.316-2.345,12.479-3.495c0.798-0.22,1.054,0.001,0.958,0.778c-0.392,3.192-0.812,6.382-1.204,9.574
		c-0.065,0.534-0.261,0.862-0.781,1.125c-0.836,0.426-1.687,0.755-2.587,1.008C357.685,142.602,355.277,143.09,352.872,143.591z"/>
	<path fill-rule="evenodd" clip-rule="evenodd" fill="#6AA9CE" d="M338.696,156.712c1.511-1.779,3.348-3.049,5.626-3.641
		C342.606,154.531,340.713,155.717,338.696,156.712z"/>
	<path fill-rule="evenodd" clip-rule="evenodd" fill="#6AA9CE" d="M344.295,153.088c0.1-0.275,0.328-0.271,0.56-0.262
		C344.668,152.915,344.48,153.002,344.295,153.088z"/>
	<path fill-rule="evenodd" clip-rule="evenodd" fill="#3F5669" d="M347.937,150.383c-0.045-0.016-0.115-0.019-0.128-0.049
		c-0.049-0.101,0.012-0.16,0.148-0.14c0.039,0.005,0.068,0.066,0.104,0.102C348.019,150.324,347.978,150.354,347.937,150.383z"/>
	<path fill-rule="evenodd" clip-rule="evenodd" fill="#6AA9CE" d="M338.379,157.011c0.116-0.108,0.228-0.216,0.343-0.323
		C338.678,156.87,338.559,156.973,338.379,157.011z"/>
	<path fill-rule="evenodd" clip-rule="evenodd" fill="#43647E" d="M367.074,105.019c-0.048-0.18,0.016-0.314,0.167-0.412
		C367.297,104.79,367.228,104.922,367.074,105.019z"/>
	<path fill-rule="evenodd" clip-rule="evenodd" fill="#242424" d="M392.116,367.127c0.016,9.455-2.022,18.439-6.331,26.864
		c-3.491,6.825-8.183,12.665-14.511,17.111c-1.721,1.216-3.448,1.471-5.4,0.628c-9.645-4.166-17.009-10.787-21.949-20.104
		c-3.042-5.729-4.822-11.831-5.451-18.25c-0.302-3.094-0.365-6.229,0.135-9.328c0.096-0.586-0.164-1.069-0.249-1.602
		c-0.254-1.589,0.722-2.712,2.163-2.548c0.675,0.081,1.115,0.524,1.443,1.001c2.263,3.284,8.84,4.992,13.038,3.291
		c3.03-1.222,5.078-3.348,6.084-6.441c0.649-1.991,1.142-2.358,3.158-2.282c0.885,0.035,1.472,0.429,1.795,1.188
		c1.32,3.101,3.784,4.876,6.861,5.907c3.315,1.11,6.652,1.241,9.96-0.04c1.296-0.498,2.405-1.274,3.265-2.395
		c0.449-0.585,0.71-1.174,0.688-1.95c-0.043-1.348,0.541-2.13,1.569-2.329c1.094-0.209,2.553,0.581,2.93,1.658
		c0.195,0.561,0.287,1.168,0.355,1.763C391.964,361.879,392.12,364.499,392.116,367.127z M387.72,370.42
		c0.669-1.76,0.221-3.582,0.287-5.371c0.018-0.5-0.356-0.612-0.795-0.291c-0.84,0.613-1.708,1.174-2.702,1.522
		c-6.711,2.342-12.896,1.449-18.542-2.949c-0.674-0.523-1.193-1.205-1.772-1.765c-0.522,0.332-0.689,0.752-0.94,1.104
		c-1.785,2.524-4.065,4.422-7.009,5.452c-4.193,1.466-8.283,1.026-12.302-0.684c-0.481-0.204-0.89-0.659-1.496-0.498
		c-0.326,4.462,0.522,10.676,1.959,15.217c2.555,8.081,6.975,14.901,13.6,20.267c3.013,2.44,6.48,4.023,9.955,5.615
		c0.359,0.169,0.617-0.076,0.831-0.342c2.491-1.525,4.56-3.507,6.511-5.672c5.978-6.632,9.59-14.401,11.434-23.064
		C387.302,376.138,387.956,373.33,387.72,370.42z"/>
	<path fill-rule="evenodd" clip-rule="evenodd" fill="#242424" d="M299.671,251.873c-0.313,0.821,0.081,1.485,0.107,2.174
		c0.17,4.434,0.377,8.868-0.561,13.253c-0.275,1.292-0.648,2.558-1.26,3.727c-2.534,4.84-9.115,6.346-13.56,3.12
		c-0.943-0.684-1.685-1.557-2.211-2.588c-0.292-0.577-0.551-0.73-1.104-0.266c-1.473,1.226-3.229,1.798-5.09,2.129
		c-3.265,0.585-6.08-0.385-8.498-2.527c-2.604-2.307-3.951-5.334-4.574-8.696c-0.665-3.572-0.687-7.16-0.02-10.74
		c0.06-0.321,0.061-0.65,0.096-1.056c-1.13-0.347-2.281-0.143-3.396-0.292c-4.213-0.561-7.604-2.375-9.621-6.254
		c-1.785-3.44-1.368-6.933,0.172-10.292c2.066-4.508,5.473-7.749,10.005-9.756c0.739-0.327,1.117-0.691,1.21-1.495
		c0.261-2.227,1.396-3.952,3.079-5.423c3.78-3.298,8.34-4.696,13.143-5.519c3.396-0.584,6.681-0.339,10.011,0.802
		c2.066,0.707,4.243,1.063,6.028,2.415c2.519,1.915,4.262,4.278,3.938,7.642c-0.08,0.837,0.199,1.088,0.938,1.383
		c7.04,2.834,11.417,7.95,12.731,15.459c0.494,2.836,0.112,5.682-1.169,8.327c-1.415,2.919-3.784,4.466-7.001,4.653
		C301.933,252.118,300.787,252.197,299.671,251.873z M301.783,247.926c0.494,0,0.991,0.038,1.479-0.01
		c1.088-0.102,2.024-0.567,2.635-1.476c1.102-1.649,1.513-3.558,1.399-5.473c-0.217-3.673-1.655-6.886-4.252-9.526
		c-1.746-1.772-3.694-3.239-6.124-3.995c-0.93-0.29-1.597-0.226-2.336,0.517c-1.641,1.646-3.643,2.784-5.826,3.581
		c-4.173,1.516-8.455,2.073-12.892,1.59c-4.662-0.508-9.061-1.571-12.517-5.035c-0.551-0.552-1.124-0.735-1.917-0.348
		c-3.646,1.787-6.361,4.467-7.812,8.275c-2.213,5.81,1.783,9.414,6.171,9.971c1.998,0.25,3.92,0.051,5.863-0.237
		c3.734-0.555,7.381-1.544,11.07-2.32c2.837-0.603,5.631-0.692,8.43,0.176c3.029,0.937,6.074,1.833,9.114,2.733
		C296.731,247.079,299.165,247.952,301.783,247.926z M278.71,229.131c1.166,0.13,2.294-0.155,3.435-0.269
		c2.709-0.271,5.262-1.056,7.618-2.425c1.292-0.752,2.388-1.746,3.157-3.052c0.763-1.297,0.826-2.602-0.181-3.812
		c-2.149-2.581-5.038-3.832-8.265-4.183c-3.739-0.408-7.432,0.028-11.014,1.246c-2.621,0.893-5.119,1.996-6.962,4.166
		c-1.458,1.715-1.416,3.134,0.076,4.615c0.548,0.543,1.157,0.99,1.834,1.371C271.616,228.587,275.15,228.917,278.71,229.131z
		 M283.316,247.523c0.11,1.838-0.185,3.454-0.201,5.084c-0.03,2.512-0.052,5.024,0.205,7.536c0.323,3.165,0.82,6.271,2.332,9.132
		c1.313,2.486,5.35,3.278,7.504,1.435c0.286-0.246,0.518-0.562,0.735-0.873c0.766-1.098,1.067-2.375,1.348-3.656
		c0.708-3.236,0.698-6.52,0.558-9.794c-0.067-1.563-0.11-3.172-0.67-4.681c-0.165-0.441-0.242-0.917-0.846-1.085
		C290.712,249.611,287.196,248.412,283.316,247.523z M279.148,253.986c0-1.914,0.015-3.834-0.004-5.751
		c-0.011-1.002-0.104-1.095-1.024-0.898c-3.313,0.707-6.618,1.462-9.933,2.169c-0.573,0.12-0.794,0.388-0.92,0.953
		c-0.906,4.063-1.045,8.117-0.021,12.181c0.448,1.782,1.245,3.387,2.488,4.745c3.201,3.495,8.049,2.07,9.82-0.33
		c0.339-0.459,0.587-0.901,0.446-1.506C279.125,261.741,278.98,257.874,279.148,253.986z"/>
	<path fill-rule="evenodd" clip-rule="evenodd" fill="#33648A" d="M218.503,94.777c-0.949,0.695-2.106,0.351-3.155,0.579
		c-2.813,0.614-5.691,0.919-8.534,1.407c-6.169,1.057-12.312,2.264-18.454,3.474c-1.92,0.379-3.811,0.924-5.768,1.126
		c-0.43-0.507-1.019-0.31-1.542-0.315c-2.14-0.02-4.283-0.084-6.42,0.009c-3.949,0.169-7.87-0.338-11.81-0.414
		c-2.26-0.043-4.551-0.497-6.729-1.255c-2.103-0.733-3.842-1.965-4.646-4.104c-1.004-2.667-0.556-5.187,1.315-7.354
		c1.497-1.734,3.372-2.859,5.626-3.484c5.26-1.459,10.613-2.513,15.892-3.87c4.386-1.127,8.765-2.265,13.222-3.048
		c4.18-0.733,8.334-1.606,12.538-2.226c2.439-0.36,4.861-0.729,7.329-0.598c2.017,0.106,4.019,0.459,6.05,0.329
		c0.276-0.018,0.604,0.022,0.639,0.356c0.032,0.292-0.219,0.493-0.482,0.599c-1.471,0.588-2.917,1.263-4.43,1.72
		c-1.422,0.432-2.235,1.523-3.184,2.486c-0.435,0.442-0.189,0.85,0.305,1.007c1.195,0.382,2.384,0.811,3.674,0.74
		c1.872-0.103,3.693,0.232,5.514,0.624c0.659,0.142,1.204,0.525,1.843,0.675c0.788,0.187,1.345,0.51,0.914,1.457
		C219.09,88.033,218.197,91.422,218.503,94.777z"/>
	<path fill-rule="evenodd" clip-rule="evenodd" fill="#242424" d="M240.977,103.619c-0.088-0.648-0.161-1.292-0.347-1.929
		c-0.878-3.012-1.108-6.106-1.089-9.227c0.434-1.148,0.569-2.441,1.758-3.205c0.765-0.493,1.484-0.647,2.075-0.014
		c1.56,1.669,3.689,1.834,5.695,2.182c2.585,0.449,5.223,0.606,7.84,0.342c5.784-0.586,11.14-2.222,15.277-6.625
		c0.373-0.397,0.733-0.816,1.025-1.273c1.075-1.685,2.349-2.071,4.115-1.13c0.77,0.409,1.478,0.937,2.202,1.424
		c3.056,2.06,6.323,3.686,9.806,4.884c0.311,0.105,0.638,0.158,0.954,0.236c3.687,1.338,7.447,1.967,11.363,1.267
		c0.553-0.1,1.034-0.32,1.543-0.51c1.427-0.531,2.09-0.105,2.567,1.32c0.685,2.033,0.016,3.991-0.157,5.975
		c-0.078,0.915-0.296,1.817-0.452,2.726c-1.004,3.868-2.23,7.65-3.852,11.318c-2.277,5.15-5.229,9.865-8.759,14.225
		c-3.011,3.719-6.479,6.966-10.394,9.737c-1.527,1.082-3.188,1.907-4.857,2.716c-0.779,0.377-1.615,0.394-2.538,0.323
		c-6.228-0.471-11.121-3.641-15.712-7.498c-6.564-5.514-11.471-12.296-15.277-19.921
		C242.59,108.611,241.828,106.097,240.977,103.619z M302.12,97.743c0.442-1.238,0.359-2.535,0.508-3.825
		c-10.106,1.241-18.568-2.689-26.634-8.028c-0.195,0.22-0.38,0.417-0.555,0.621c-2.193,2.58-4.814,4.605-7.911,5.991
		c-4.882,2.186-9.975,3.057-15.326,2.652c-2.802-0.211-5.528-0.655-8.184-1.559c-0.334-0.112-0.659-0.407-1.089-0.089
		c0,0.913-0.105,1.859,0.019,2.77c0.697,5.062,2.013,9.958,4.387,14.5c3.451,6.604,7.873,12.479,13.553,17.352
		c2.242,1.922,4.516,3.812,7.314,4.915c1.544,0.964,3.27,1.472,5.009,1.884c0.828,0.196,1.872,0.347,2.578,0.011
		c1.316-0.627,2.734-1.051,3.959-1.907c2.43-1.701,4.7-3.589,6.785-5.678c3.256-3.264,6.064-6.89,8.396-10.877
		c1.958-3.35,3.775-6.764,4.927-10.495C300.957,103.33,301.741,100.592,302.12,97.743z"/>
	<path fill-rule="evenodd" clip-rule="evenodd" fill="#242424" d="M323.53,206.437c-7.702,0.126-14.834-7.084-12.438-16.085
		c1.088-4.088,3.962-6.817,8.088-8.107c4.752-1.485,8.942-0.117,12.491,2.937c4.095,3.521,5.417,9.621,2.668,14.767
		c-1.866,3.491-4.77,5.431-8.497,6.356C325.028,206.506,324.207,206.406,323.53,206.437z M332.431,190.863
		c0.015-1.999-1.519-3.686-3.387-3.721c-1.87-0.036-3.444,1.656-3.408,3.668c0.033,1.929,1.539,3.476,3.403,3.502
		C330.938,194.337,332.418,192.836,332.431,190.863z"/>
	<path fill-rule="evenodd" clip-rule="evenodd" fill="#242424" d="M233.337,183.685c5.404-0.015,11.584,4.352,12.55,10.642
		c0.9,5.864-2.577,11.461-7.861,13.383c-6.524,2.372-13.813-1.023-16.315-7.431c-2.022-5.187-0.467-10.874,3.999-14.171
		C228.026,184.399,230.54,183.683,233.337,183.685z M241.87,192.772c0.021-2.019-1.624-3.716-3.596-3.711
		c-1.973,0.005-3.496,1.651-3.496,3.789c0.001,2.005,1.549,3.626,3.469,3.632C240.195,196.487,241.85,194.791,241.87,192.772z"/>
	<path fill-rule="evenodd" clip-rule="evenodd" fill="#8C8C8C" d="M386.737,378.961c-1.844,8.663-5.456,16.433-11.434,23.064
		c-1.951,2.165-4.02,4.146-6.511,5.672c-0.243-0.219-0.472-0.46-0.73-0.657c-3.294-2.574-6.281-5.464-8.877-8.735
		c-2.316-2.926-4.342-6.05-6.098-9.338c-1.368-2.561-2.567-5.203-3.273-8.036c2.422-0.382,4.786-1.046,7.209-1.436
		c3.556-0.581,7.127-1.039,10.72-1.142c3.831-0.113,7.668-0.019,11.502-0.009c0.49,0.003,0.979,0.066,1.471,0.111
		C382.723,378.623,384.729,378.793,386.737,378.961z"/>
	<path fill-rule="evenodd" clip-rule="evenodd" fill="#E0E0E0" d="M349.814,380.931c0.706,2.833,1.905,5.476,3.273,8.036
		c1.756,3.288,3.781,6.412,6.098,9.338c2.596,3.271,5.583,6.161,8.877,8.735c0.259,0.197,0.487,0.438,0.73,0.657
		c-0.214,0.266-0.472,0.511-0.831,0.342c-3.475-1.592-6.942-3.175-9.955-5.615c-6.625-5.365-11.045-12.186-13.6-20.267
		c-1.437-4.541-2.285-10.755-1.959-15.217c0.606-0.161,1.015,0.294,1.496,0.498c4.019,1.71,8.108,2.149,12.302,0.684
		c2.943-1.03,5.224-2.928,7.009-5.452c0.251-0.352,0.418-0.771,0.94-1.104c0.579,0.56,1.099,1.241,1.772,1.765
		c5.646,4.398,11.831,5.291,18.542,2.949c0.994-0.349,1.862-0.909,2.702-1.522c0.438-0.321,0.813-0.209,0.795,0.291
		c-0.066,1.789,0.382,3.611-0.287,5.371c-1.097,0.005-2.2-0.071-3.286,0.036c-1.904,0.178-3.789,0.05-5.656-0.266
		c-3.343-0.563-6.605-1.445-9.709-2.859c-0.631-0.286-1.264-0.353-1.854,0.117c-1.687,1.333-3.635,2.216-5.538,3.176
		c-3.718,1.868-7.616,2.976-11.829,2.774c-0.684-0.033-1.409-0.176-2.12,0.187c0.065,0.449,0.094,0.883,0.196,1.301
		C348.422,376.94,348.691,379.069,349.814,380.931z"/>
	<path fill-rule="evenodd" clip-rule="evenodd" fill="#CBCBCB" d="M349.814,380.931c-1.123-1.862-1.393-3.991-1.892-6.045
		c-0.103-0.418-0.131-0.852-0.196-1.301c0.711-0.362,1.437-0.22,2.12-0.187c4.213,0.201,8.111-0.906,11.829-2.774
		c1.903-0.96,3.852-1.843,5.538-3.176c0.591-0.47,1.224-0.403,1.854-0.117c3.104,1.414,6.366,2.297,9.709,2.859
		c1.867,0.315,3.752,0.443,5.656,0.266c1.086-0.107,2.189-0.031,3.286-0.036c0.236,2.909-0.418,5.718-0.982,8.541
		c-2.008-0.168-4.015-0.339-6.021-0.505c-0.492-0.045-0.98-0.108-1.471-0.111c-3.834-0.01-7.671-0.104-11.502,0.009
		c-3.593,0.103-7.164,0.561-10.72,1.142C354.601,379.885,352.236,380.549,349.814,380.931z"/>
	<path fill-rule="evenodd" clip-rule="evenodd" fill="#C4B499" d="M301.783,247.926c-2.618,0.025-5.052-0.848-7.513-1.578
		c-3.04-0.9-6.085-1.796-9.114-2.733c-2.799-0.868-5.593-0.778-8.43-0.176c-3.689,0.776-7.336,1.766-11.07,2.32
		c-1.943,0.288-3.865,0.487-5.863,0.237c-4.388-0.557-8.384-4.161-6.171-9.971c1.45-3.809,4.165-6.489,7.812-8.275
		c0.793-0.388,1.366-0.205,1.917,0.348c3.456,3.464,7.854,4.527,12.517,5.035c4.437,0.483,8.719-0.074,12.892-1.59
		c2.184-0.796,4.186-1.934,5.826-3.581c0.739-0.743,1.406-0.807,2.336-0.517c2.43,0.756,4.378,2.223,6.124,3.995
		c2.597,2.64,4.035,5.853,4.252,9.526c0.113,1.915-0.298,3.824-1.399,5.473c-0.61,0.909-1.547,1.374-2.635,1.476
		C302.774,247.964,302.277,247.926,301.783,247.926z"/>
	<path fill-rule="evenodd" clip-rule="evenodd" fill="#8C8C8C" d="M278.71,229.131c-3.56-0.214-7.094-0.544-10.301-2.343
		c-0.677-0.381-1.286-0.828-1.834-1.371c-1.492-1.48-1.534-2.899-0.076-4.615c1.843-2.17,4.341-3.273,6.962-4.166
		c3.582-1.217,7.274-1.654,11.014-1.246c3.227,0.352,6.115,1.603,8.265,4.183c1.007,1.21,0.943,2.515,0.181,3.812
		c-0.77,1.306-1.865,2.299-3.157,3.052c-2.356,1.369-4.909,2.154-7.618,2.425C281.004,228.976,279.876,229.261,278.71,229.131z"/>
	<path fill-rule="evenodd" clip-rule="evenodd" fill="#FEFEFE" d="M283.316,247.523c3.88,0.889,7.396,2.088,10.965,3.099
		c0.604,0.168,0.681,0.644,0.846,1.085c0.56,1.509,0.603,3.119,0.67,4.681c0.141,3.274,0.15,6.558-0.558,9.794
		c-0.28,1.281-0.582,2.558-1.348,3.656c-0.218,0.311-0.449,0.627-0.735,0.873c-2.154,1.843-6.19,1.051-7.504-1.435
		c-1.512-2.861-2.009-5.967-2.332-9.132c-0.257-2.512-0.235-5.024-0.205-7.536C283.132,250.977,283.427,249.361,283.316,247.523z"/>
	<path fill-rule="evenodd" clip-rule="evenodd" fill="#FEFEFE" d="M279.148,253.986c-0.168,3.888-0.023,7.755,0.853,11.563
		c0.141,0.604-0.107,1.046-0.446,1.506c-1.771,2.399-6.619,3.824-9.82,0.33c-1.243-1.358-2.04-2.963-2.488-4.745
		c-1.023-4.064-0.885-8.118,0.021-12.181c0.126-0.564,0.347-0.833,0.92-0.953c3.314-0.708,6.619-1.462,9.933-2.169
		c0.92-0.197,1.014-0.104,1.024,0.898C279.163,250.152,279.148,252.072,279.148,253.986z"/>
	<path fill-rule="evenodd" clip-rule="evenodd" fill="#CBCBCB" d="M299.855,105.979c-1.151,3.73-2.969,7.145-4.927,10.495
		c-2.331,3.987-5.14,7.613-8.396,10.877c-2.085,2.089-4.355,3.978-6.785,5.678c-1.225,0.856-2.643,1.28-3.959,1.907
		c-0.706,0.335-1.75,0.185-2.578-0.011c-1.739-0.412-3.465-0.919-5.009-1.882c0.108-0.748-0.491-1.083-0.932-1.439
		c-1.674-1.343-3.074-2.938-4.533-4.499c-3.049-3.264-5.627-6.853-7.856-10.692c-0.813-1.398-1.84-2.757-1.874-4.499
		c0.272-0.028,0.563-0.001,0.813-0.091c3.507-1.243,7.064-2.313,10.668-3.236c2.432-0.623,4.864-1.218,7.339-1.649
		c2.688-0.467,5.379-0.813,8.102-1.032c2.553-0.206,5.097-0.528,7.661-0.586C291.695,105.226,295.79,105.312,299.855,105.979z"/>
	<path fill-rule="evenodd" clip-rule="evenodd" fill="#E0E0E0" d="M299.855,105.979c-4.065-0.668-8.16-0.753-12.266-0.66
		c-2.564,0.058-5.108,0.381-7.661,0.586c-2.723,0.218-5.414,0.564-8.102,1.032c-2.475,0.431-4.907,1.026-7.339,1.649
		c-3.604,0.924-7.161,1.993-10.668,3.236c-0.25,0.09-0.541,0.063-0.813,0.091c-0.224-0.033-0.44-0.1-0.528-0.326
		c-1.086-2.747-2.21-5.501-2.616-8.431c-0.192-1.368-0.368-2.8-0.132-4.217c0.096-0.572,0.3-0.908,0.934-0.885
		c1.532,0.056,3.052-0.232,4.569-0.27c4.775-0.115,9.261-1.388,13.683-3.025c2.676-0.992,5.228-2.25,7.758-3.561
		c0.544-0.282,1.024-0.506,1.65-0.021c2.046,1.589,4.399,2.617,6.766,3.64c4.259,1.842,8.752,2.688,13.314,3.198
		c1.212,0.135,2.521,0.339,3.716-0.273C301.741,100.592,300.957,103.33,299.855,105.979z"/>
	<path fill-rule="evenodd" clip-rule="evenodd" fill="#FEFEFE" d="M302.12,97.743c-1.195,0.612-2.504,0.408-3.716,0.273
		c-4.563-0.51-9.056-1.356-13.314-3.198c-2.366-1.022-4.72-2.051-6.766-3.64c-0.626-0.485-1.106-0.261-1.65,0.021
		c-2.53,1.311-5.082,2.569-7.758,3.561c-4.422,1.637-8.907,2.91-13.683,3.025c-1.518,0.037-3.037,0.325-4.569,0.27
		c-0.634-0.022-0.838,0.313-0.934,0.885c-0.236,1.417-0.061,2.849,0.132,4.217c0.406,2.93,1.53,5.685,2.616,8.431
		c0.088,0.226,0.305,0.292,0.528,0.326c0.034,1.742,1.061,3.1,1.874,4.499c2.229,3.84,4.808,7.429,7.856,10.692
		c1.459,1.562,2.859,3.156,4.533,4.499c0.44,0.355,1.04,0.691,0.932,1.439c-2.799-1.104-5.072-2.994-7.314-4.916
		c-5.68-4.873-10.102-10.747-13.553-17.352c-2.374-4.542-3.69-9.438-4.387-14.5c-0.125-0.911-0.019-1.857-0.019-2.77
		c0.43-0.318,0.754-0.023,1.089,0.089c2.656,0.904,5.382,1.348,8.184,1.559c5.352,0.404,10.444-0.466,15.326-2.652
		c3.097-1.386,5.718-3.411,7.911-5.991c0.175-0.204,0.359-0.401,0.555-0.621c8.065,5.339,16.527,9.27,26.634,8.028
		C302.479,95.208,302.563,96.505,302.12,97.743z"/>
	<path fill-rule="evenodd" clip-rule="evenodd" fill="#FEFEFE" d="M332.431,190.863c-0.013,1.973-1.492,3.475-3.392,3.449
		c-1.864-0.026-3.37-1.573-3.403-3.502c-0.036-2.012,1.538-3.704,3.408-3.668C330.912,187.177,332.445,188.864,332.431,190.863z"/>
	<path fill-rule="evenodd" clip-rule="evenodd" fill="#FEFEFE" d="M241.87,192.772c-0.021,2.019-1.675,3.715-3.623,3.71
		c-1.919-0.006-3.468-1.627-3.469-3.632c0-2.137,1.523-3.784,3.496-3.789C240.246,189.056,241.892,190.753,241.87,192.772z"/>
</g>
</svg>
